<svg width="10" height="10" viewBox="0 0 10 10" fill="none" xmlns="http://www.w3.org/2000/svg">
<g filter="url(#filter0_i_1170_77)">
<path d="M7.39941 6.50049C7.73073 6.50049 7.9999 6.76881 8 7.1001C8 7.43147 7.73078 7.69971 7.39941 7.69971H2.59961C2.26841 7.6995 2 7.43134 2 7.1001C2.0001 6.76894 2.26847 6.50069 2.59961 6.50049H7.39941ZM4 4.50049C4.33113 4.5007 4.59951 4.76894 4.59961 5.1001C4.59961 5.43134 4.33119 5.6995 4 5.69971H2.59961C2.26842 5.6995 2 5.43134 2 5.1001C2.0001 4.76894 2.26848 4.5007 2.59961 4.50049H4ZM6.5 2.50049C6.77614 2.50049 7 2.72435 7 3.00049C7 3.09342 7 3.13988 7.00769 3.17852C7.03925 3.3372 7.16329 3.46124 7.32196 3.4928C7.3606 3.50049 7.40707 3.50049 7.5 3.50049C7.77614 3.50049 8 3.72435 8 4.00049C7.99979 4.27645 7.77601 4.50049 7.5 4.50049C7.40707 4.50049 7.3606 4.50049 7.32196 4.50817C7.16329 4.53974 7.03925 4.66378 7.00769 4.82245C7 4.86109 7 4.90756 7 5.00049C6.99979 5.27645 6.77601 5.50049 6.5 5.50049C6.224 5.50047 6.00021 5.27644 6 5.00049C6 4.90756 6 4.86109 5.99231 4.82245C5.96075 4.66378 5.83671 4.53974 5.67804 4.50817C5.6394 4.50049 5.59293 4.50049 5.5 4.50049C5.224 4.50048 5.00021 4.27644 5 4.00049C5 3.72435 5.22387 3.5005 5.5 3.50049C5.59293 3.50049 5.6394 3.50049 5.67804 3.4928C5.83671 3.46124 5.96075 3.3372 5.99231 3.17852C6 3.13988 6 3.09342 6 3.00049C6 2.72435 6.22387 2.5005 6.5 2.50049ZM4 2.30029C4.33107 2.3005 4.59941 2.56883 4.59961 2.8999C4.59961 3.23114 4.33119 3.4993 4 3.49951H2.59961C2.26842 3.4993 2 3.23114 2 2.8999C2.00019 2.56883 2.26854 2.3005 2.59961 2.30029H4Z" fill="white"/>
</g>
<defs>
<filter id="filter0_i_1170_77" x="0" y="0" width="10" height="10" filterUnits="userSpaceOnUse" color-interpolation-filters="sRGB">
<feFlood flood-opacity="0" result="BackgroundImageFix"/>
<feBlend mode="normal" in="SourceGraphic" in2="BackgroundImageFix" result="shape"/>
<feColorMatrix in="SourceAlpha" type="matrix" values="0 0 0 0 0 0 0 0 0 0 0 0 0 0 0 0 0 0 127 0" result="hardAlpha"/>
<feOffset/>
<feGaussianBlur stdDeviation="1"/>
<feComposite in2="hardAlpha" operator="arithmetic" k2="-1" k3="1"/>
<feColorMatrix type="matrix" values="0 0 0 0 0.942 0 0 0 0 0.94 0 0 0 0 1 0 0 0 0.1 0"/>
<feBlend mode="hard-light" in2="shape" result="effect1_innerShadow_1170_77"/>
</filter>
</defs>
</svg>
