<svg width="10" height="10" viewBox="0 0 10 10" fill="none" xmlns="http://www.w3.org/2000/svg">
<g filter="url(#filter0_i_1172_127)">
<path d="M3.40039 2C3.78681 2.00021 4.10059 2.31373 4.10059 2.7002V5.01611C4.10059 5.13817 4.10059 5.1992 4.13315 5.24018C4.13804 5.24633 4.14258 5.25125 4.14833 5.2566C4.18662 5.29228 4.2528 5.2975 4.38516 5.30793C4.51011 5.31777 4.59418 5.34112 4.65918 5.39648C4.67511 5.41009 4.69049 5.42547 4.7041 5.44141C4.79966 5.55359 4.7998 5.72263 4.7998 6.06055V6.14062C4.7998 6.47855 4.79966 6.64758 4.7041 6.75977C4.69049 6.7757 4.67511 6.79108 4.65918 6.80469C4.59418 6.86005 4.51011 6.88303 4.38517 6.89259C4.25297 6.9027 4.18687 6.90776 4.14847 6.94345C4.14271 6.9488 4.13814 6.95374 4.13325 6.95988C4.10059 7.0009 4.10059 7.06196 4.10059 7.18409V7.2998C4.10049 7.68619 3.78675 7.99979 3.40039 8C3.01385 8 2.70029 7.68632 2.7002 7.2998V7.1841C2.7002 7.06193 2.7002 7.00084 2.66751 6.95982C2.66261 6.95368 2.65803 6.94873 2.65227 6.94339C2.61384 6.90769 2.54776 6.90268 2.4156 6.89266C2.29013 6.88315 2.20579 6.86019 2.14062 6.80469C2.12469 6.79108 2.10931 6.7757 2.0957 6.75977C2.00014 6.64758 2 6.47855 2 6.14062V6.06055C2 5.72263 2.00014 5.55359 2.0957 5.44141C2.10931 5.42547 2.12469 5.41009 2.14062 5.39648C2.20579 5.34098 2.29013 5.31765 2.41561 5.30785C2.54793 5.29752 2.61408 5.29235 2.65241 5.25667C2.65816 5.25132 2.66271 5.24639 2.6676 5.24024C2.7002 5.19925 2.7002 5.1382 2.7002 5.0161V2.7002C2.7002 2.3136 3.01379 2 3.40039 2ZM6.60059 2C6.98692 2.00032 7.30078 2.31379 7.30078 2.7002V2.81591C7.30078 2.93798 7.30078 2.99901 7.33335 3.03999C7.33823 3.04613 7.34278 3.05105 7.34852 3.05641C7.38682 3.09209 7.453 3.0973 7.58535 3.10773C7.7103 3.11757 7.79438 3.14092 7.85938 3.19629C7.87531 3.2099 7.89069 3.22528 7.9043 3.24121C7.99986 3.3534 8 3.52243 8 3.86035V3.94043C8 4.27835 7.99986 4.44738 7.9043 4.55957C7.89069 4.5755 7.87531 4.59088 7.85938 4.60449C7.79438 4.65985 7.71031 4.68283 7.58536 4.69239C7.45316 4.70251 7.38706 4.70757 7.34866 4.74326C7.34291 4.7486 7.33833 4.75354 7.33344 4.75969C7.30078 4.8007 7.30078 4.86176 7.30078 4.98389V7.2998C7.30068 7.68612 6.98686 7.99968 6.60059 8C6.21405 8 5.90049 7.68632 5.90039 7.2998V4.9839C5.90039 4.86173 5.90039 4.80065 5.8677 4.75963C5.86281 4.75348 5.85822 4.74854 5.85247 4.74319C5.81404 4.7075 5.74796 4.70249 5.6158 4.69247C5.49032 4.68295 5.40598 4.66 5.34082 4.60449C5.32489 4.59088 5.30951 4.5755 5.2959 4.55957C5.20034 4.44738 5.2002 4.27835 5.2002 3.94043V3.86035C5.2002 3.52243 5.20034 3.3534 5.2959 3.24121C5.30951 3.22528 5.32489 3.2099 5.34082 3.19629C5.40599 3.14078 5.49033 3.11746 5.61581 3.10766C5.74812 3.09732 5.81428 3.09216 5.85261 3.05647C5.85835 3.05112 5.86291 3.04619 5.8678 3.04005C5.90039 2.99906 5.90039 2.93801 5.90039 2.8159V2.7002C5.90039 2.3136 6.21399 2 6.60059 2Z" fill="white"/>
</g>
<defs>
<filter id="filter0_i_1172_127" x="0" y="0" width="10" height="10" filterUnits="userSpaceOnUse" color-interpolation-filters="sRGB">
<feFlood flood-opacity="0" result="BackgroundImageFix"/>
<feBlend mode="normal" in="SourceGraphic" in2="BackgroundImageFix" result="shape"/>
<feColorMatrix in="SourceAlpha" type="matrix" values="0 0 0 0 0 0 0 0 0 0 0 0 0 0 0 0 0 0 127 0" result="hardAlpha"/>
<feOffset/>
<feGaussianBlur stdDeviation="1"/>
<feComposite in2="hardAlpha" operator="arithmetic" k2="-1" k3="1"/>
<feColorMatrix type="matrix" values="0 0 0 0 0.942 0 0 0 0 0.94 0 0 0 0 1 0 0 0 0.1 0"/>
<feBlend mode="hard-light" in2="shape" result="effect1_innerShadow_1172_127"/>
</filter>
</defs>
</svg>
