<svg width="10" height="10" viewBox="0 0 10 10" fill="none" xmlns="http://www.w3.org/2000/svg">
<g filter="url(#filter0_i_1093_34)">
<path d="M8 6.7251C8 7.00378 8.00025 7.14326 7.97266 7.2583C7.88487 7.62395 7.59905 7.90977 7.2334 7.99756C7.11836 8.02516 6.97889 8.0249 6.7002 8.0249H3.2998C3.02111 8.0249 2.88164 8.02516 2.7666 7.99756C2.40095 7.90977 2.11513 7.62395 2.02734 7.2583C1.99975 7.14326 2 7.00378 2 6.7251V5.0451C2 4.79131 2 4.66442 2.07188 4.58026C2.08208 4.56831 2.09322 4.55718 2.10517 4.54698C2.18932 4.4751 2.31622 4.4751 2.57 4.4751H7.43C7.68378 4.4751 7.81068 4.4751 7.89483 4.54698C7.90679 4.55718 7.91791 4.56831 7.92812 4.58026C8 4.66442 8 4.79131 8 5.0451V6.7251ZM3.2998 6.42529C3.02377 6.42543 2.7998 6.64923 2.7998 6.92529C2.79986 7.20131 3.02381 7.42516 3.2998 7.42529C3.57591 7.42529 3.79975 7.20139 3.7998 6.92529C3.7998 6.64915 3.57595 6.42529 3.2998 6.42529ZM5 6.42529C4.72389 6.42533 4.5 6.64917 4.5 6.92529C4.50005 7.20137 4.72392 7.42526 5 7.42529H6.7002C6.97624 7.42522 7.20014 7.20134 7.2002 6.92529C7.2002 6.6492 6.97628 6.42537 6.7002 6.42529H5ZM3.2998 4.92529C3.02377 4.92542 2.7998 5.14923 2.7998 5.42529C2.79985 5.70132 3.0238 5.92516 3.2998 5.92529C3.57592 5.92529 3.79976 5.7014 3.7998 5.42529C3.7998 5.14915 3.57595 4.92529 3.2998 4.92529ZM5 4.92529C4.72389 4.92533 4.5 5.14917 4.5 5.42529C4.50004 5.70138 4.72391 5.92526 5 5.92529C5.27612 5.92529 5.49996 5.7014 5.5 5.42529C5.5 5.14915 5.27614 4.92529 5 4.92529ZM6.7002 4.92529C6.42405 4.92529 6.2002 5.14915 6.2002 5.42529C6.20024 5.7014 6.42408 5.92529 6.7002 5.92529C6.97624 5.92521 7.20015 5.70135 7.2002 5.42529C7.2002 5.1492 6.97627 4.92538 6.7002 4.92529ZM6.5 1.9751C6.77614 1.9751 7 2.19896 7 2.4751V2.57471C7 2.71278 7.11193 2.82471 7.25 2.82471C7.66414 2.82471 7.99988 3.1606 8 3.57471C8 3.62972 7.9554 3.67432 7.90039 3.67432H2.09961C2.0446 3.67432 2 3.62972 2 3.57471C2.00012 3.1606 2.33586 2.82471 2.75 2.82471C2.88807 2.82471 3 2.71278 3 2.57471V2.4751C3 2.19896 3.22386 1.9751 3.5 1.9751C3.77614 1.9751 4 2.19896 4 2.4751V2.5415C4 2.69793 4.12679 2.82465 4.2832 2.82471H5.7168C5.87321 2.82465 6 2.69793 6 2.5415V2.4751C6 2.19896 6.22386 1.9751 6.5 1.9751Z" fill="white"/>
</g>
<defs>
<filter id="filter0_i_1093_34" x="0" y="0" width="10" height="10" filterUnits="userSpaceOnUse" color-interpolation-filters="sRGB">
<feFlood flood-opacity="0" result="BackgroundImageFix"/>
<feBlend mode="normal" in="SourceGraphic" in2="BackgroundImageFix" result="shape"/>
<feColorMatrix in="SourceAlpha" type="matrix" values="0 0 0 0 0 0 0 0 0 0 0 0 0 0 0 0 0 0 127 0" result="hardAlpha"/>
<feOffset/>
<feGaussianBlur stdDeviation="1"/>
<feComposite in2="hardAlpha" operator="arithmetic" k2="-1" k3="1"/>
<feColorMatrix type="matrix" values="0 0 0 0 0.942 0 0 0 0 0.94 0 0 0 0 1 0 0 0 0.1 0"/>
<feBlend mode="hard-light" in2="shape" result="effect1_innerShadow_1093_34"/>
</filter>
</defs>
</svg>
