<svg width="10" height="10" viewBox="0 0 10 10" fill="none" xmlns="http://www.w3.org/2000/svg">
<g filter="url(#filter0_i_1079_94)">
<path d="M5.51562 2.75388C5.82792 2.75388 5.98435 2.75416 6.10645 2.83102C6.12393 2.84205 6.14124 2.85405 6.15723 2.86716C6.26862 2.95866 6.31818 3.10728 6.41699 3.40329C6.43029 3.44318 6.43694 3.46313 6.44507 3.48008C6.48953 3.57285 6.5758 3.6351 6.67786 3.64804C6.69651 3.65041 6.71853 3.65043 6.76258 3.65047C7.0532 3.65075 7.2246 3.66438 7.3623 3.73434C7.51071 3.80978 7.63193 3.92955 7.70898 4.07712C7.79968 4.251 7.7998 4.48093 7.7998 4.93942V5.72653C7.7998 6.40354 7.80011 6.7423 7.6084 6.96677C7.5812 6.99858 7.55136 7.02846 7.51953 7.05563C7.29482 7.24732 6.95576 7.24681 6.27832 7.24606L3.71875 7.24313C3.04295 7.24239 2.70461 7.24218 2.48047 7.05075C2.44867 7.02356 2.41876 6.99371 2.3916 6.96188C2.2002 6.73756 2.2002 6.39955 2.2002 5.7236V4.93845C2.2002 4.47179 2.20049 4.23817 2.29492 4.06149C2.36952 3.92211 2.48362 3.80789 2.62305 3.73337C2.76439 3.65785 2.942 3.64254 3.24632 3.63943C3.28474 3.63904 3.30396 3.63884 3.32026 3.63688C3.4243 3.62438 3.51243 3.56043 3.55656 3.46539C3.56348 3.45049 3.56934 3.43313 3.58105 3.39841C3.68079 3.10416 3.73144 2.95699 3.84277 2.86618C3.85869 2.85322 3.87519 2.84096 3.89258 2.83005C4.01436 2.75373 4.17055 2.75388 4.48145 2.75388H5.51562ZM5 4.29294C4.44772 4.29294 4 4.74065 4 5.29294C4.00023 5.84502 4.44786 6.29294 5 6.29294C5.55214 6.29294 5.99977 5.84502 6 5.29294C6 4.74065 5.55228 4.29294 5 4.29294Z" fill="white"/>
</g>
<defs>
<filter id="filter0_i_1079_94" x="0" y="0" width="10" height="10" filterUnits="userSpaceOnUse" color-interpolation-filters="sRGB">
<feFlood flood-opacity="0" result="BackgroundImageFix"/>
<feBlend mode="normal" in="SourceGraphic" in2="BackgroundImageFix" result="shape"/>
<feColorMatrix in="SourceAlpha" type="matrix" values="0 0 0 0 0 0 0 0 0 0 0 0 0 0 0 0 0 0 127 0" result="hardAlpha"/>
<feOffset/>
<feGaussianBlur stdDeviation="1"/>
<feComposite in2="hardAlpha" operator="arithmetic" k2="-1" k3="1"/>
<feColorMatrix type="matrix" values="0 0 0 0 0.942 0 0 0 0 0.94 0 0 0 0 1 0 0 0 0.1 0"/>
<feBlend mode="hard-light" in2="shape" result="effect1_innerShadow_1079_94"/>
</filter>
</defs>
</svg>
