<svg width="10" height="10" viewBox="0 0 10 10" fill="none" xmlns="http://www.w3.org/2000/svg">
<g filter="url(#filter0_i_1079_292)">
<path d="M5.49088 2.6521C5.76098 2.70951 5.93305 2.97574 5.87564 3.24585L5.0856 6.96265C5.02806 7.23258 4.76284 7.4048 4.49283 7.34741C4.22277 7.28998 4.0507 7.0247 4.10806 6.75464L4.8981 3.03784C4.95551 2.76774 5.22077 2.5947 5.49088 2.6521ZM2.81412 3.44214C3.04008 3.28391 3.35118 3.33827 3.50943 3.56421C3.66758 3.79009 3.61305 4.1012 3.38736 4.25952L3.06412 4.48608C2.77531 4.68847 2.6309 4.79006 2.6188 4.92944C2.61735 4.94652 2.61733 4.96412 2.6188 4.9812C2.63111 5.12041 2.7755 5.22213 3.06412 5.42456L3.34341 5.61987C3.5689 5.77818 3.62339 6.08937 3.46548 6.31519C3.30722 6.5412 2.99522 6.59649 2.7692 6.43823L1.23502 5.36401C1.0093 5.20574 0.954911 4.8946 1.11295 4.6687C1.15498 4.60867 1.20805 4.56123 1.26724 4.52612C1.27136 4.52305 1.27473 4.51835 1.27896 4.51538L2.81412 3.44214ZM6.49088 3.56421C6.64915 3.33837 6.96026 3.28394 7.18619 3.44214L8.72134 4.51538C8.7255 4.51834 8.729 4.52309 8.73306 4.52612C8.79217 4.56121 8.84537 4.60874 8.88736 4.6687C9.04527 4.89459 8.99096 5.20577 8.76529 5.36401L7.23111 6.43823C7.00511 6.59647 6.6931 6.54114 6.53482 6.31519C6.37681 6.0893 6.43122 5.77816 6.65689 5.61987L6.93619 5.42456C7.22479 5.22214 7.36921 5.12041 7.3815 4.9812C7.38297 4.96413 7.38296 4.94651 7.3815 4.92944C7.3694 4.79001 7.22422 4.68861 6.93521 4.48608L6.61295 4.25952C6.38725 4.1012 6.33272 3.79009 6.49088 3.56421Z" fill="white"/>
</g>
<defs>
<filter id="filter0_i_1079_292" x="0" y="0" width="10" height="10" filterUnits="userSpaceOnUse" color-interpolation-filters="sRGB">
<feFlood flood-opacity="0" result="BackgroundImageFix"/>
<feBlend mode="normal" in="SourceGraphic" in2="BackgroundImageFix" result="shape"/>
<feColorMatrix in="SourceAlpha" type="matrix" values="0 0 0 0 0 0 0 0 0 0 0 0 0 0 0 0 0 0 127 0" result="hardAlpha"/>
<feOffset/>
<feGaussianBlur stdDeviation="1"/>
<feComposite in2="hardAlpha" operator="arithmetic" k2="-1" k3="1"/>
<feColorMatrix type="matrix" values="0 0 0 0 0.942 0 0 0 0 0.94 0 0 0 0 1 0 0 0 0.1 0"/>
<feBlend mode="hard-light" in2="shape" result="effect1_innerShadow_1079_292"/>
</filter>
</defs>
</svg>
