<svg width="10" height="10" viewBox="0 0 10 10" fill="none" xmlns="http://www.w3.org/2000/svg">
<g filter="url(#filter0_i_1079_272)">
<path d="M7.0602 2.0498C7.56776 2.0498 7.82155 2.0498 7.98986 2.19356C8.01377 2.21397 8.03603 2.23623 8.05644 2.26014C8.2002 2.42845 8.2002 2.68224 8.2002 3.1898V4.8102C8.2002 5.31776 8.2002 5.57155 8.05644 5.73986C8.03603 5.76377 8.01377 5.78603 7.98986 5.80644C7.82155 5.9502 7.56776 5.9502 7.0602 5.9502H6.2002C5.92405 5.9502 5.7002 6.17405 5.7002 6.4502C5.7002 6.72634 5.92405 6.9502 6.2002 6.9502H6.2998C6.57595 6.9502 6.7998 7.17405 6.7998 7.4502C6.7998 7.72634 6.57595 7.9502 6.2998 7.9502H3.7002C3.42405 7.9502 3.2002 7.72634 3.2002 7.4502C3.2002 7.17405 3.42405 6.9502 3.7002 6.9502H3.7998C4.07595 6.9502 4.2998 6.72634 4.2998 6.4502C4.2998 6.17405 4.07595 5.9502 3.7998 5.9502H2.9398C2.43224 5.9502 2.17845 5.9502 2.01014 5.80644C1.98623 5.78603 1.96397 5.76377 1.94356 5.73986C1.7998 5.57155 1.7998 5.31776 1.7998 4.8102V3.1898C1.7998 2.68224 1.7998 2.42845 1.94356 2.26014C1.96397 2.23623 1.98623 2.21397 2.01014 2.19356C2.17845 2.0498 2.43224 2.0498 2.9398 2.0498H7.0602ZM3.36035 2.84961C3.02214 2.84961 2.85245 2.84962 2.74023 2.94531C2.72433 2.95889 2.70988 2.97434 2.69629 2.99023C2.60049 3.1024 2.59961 3.27128 2.59961 3.60938V4.38965C2.59961 4.72803 2.60045 4.89755 2.69629 5.00977C2.70979 5.02554 2.72445 5.04022 2.74023 5.05371C2.85245 5.14955 3.02197 5.14941 3.36035 5.14941H6.63965C6.97803 5.14941 7.14755 5.14955 7.25977 5.05371C7.27555 5.04022 7.29021 5.02554 7.30371 5.00977C7.39955 4.89755 7.40039 4.72803 7.40039 4.38965V3.60938C7.40039 3.27128 7.39951 3.1024 7.30371 2.99023C7.29013 2.97434 7.27567 2.95889 7.25977 2.94531C7.14755 2.84962 6.97785 2.84961 6.63965 2.84961H3.36035Z" fill="white"/>
</g>
<defs>
<filter id="filter0_i_1079_272" x="0" y="0" width="10" height="10" filterUnits="userSpaceOnUse" color-interpolation-filters="sRGB">
<feFlood flood-opacity="0" result="BackgroundImageFix"/>
<feBlend mode="normal" in="SourceGraphic" in2="BackgroundImageFix" result="shape"/>
<feColorMatrix in="SourceAlpha" type="matrix" values="0 0 0 0 0 0 0 0 0 0 0 0 0 0 0 0 0 0 127 0" result="hardAlpha"/>
<feOffset/>
<feGaussianBlur stdDeviation="1"/>
<feComposite in2="hardAlpha" operator="arithmetic" k2="-1" k3="1"/>
<feColorMatrix type="matrix" values="0 0 0 0 0.942 0 0 0 0 0.94 0 0 0 0 1 0 0 0 0.1 0"/>
<feBlend mode="hard-light" in2="shape" result="effect1_innerShadow_1079_272"/>
</filter>
</defs>
</svg>
