<svg width="10" height="10" viewBox="0 0 10 10" fill="none" xmlns="http://www.w3.org/2000/svg">
<g filter="url(#filter0_i_1162_512)">
<path d="M4.18213 3.94972C4.69925 3.94972 5.05183 3.9507 5.31787 3.98293C5.57404 4.01404 5.69747 4.06941 5.78174 4.14113C5.81343 4.1682 5.84351 4.19832 5.87061 4.23C5.94254 4.31422 5.99858 4.43738 6.02979 4.69386C6.06207 4.9599 6.06201 5.31235 6.06201 5.82961V6.42921C6.06201 7.10594 6.06225 7.44503 5.87061 7.66945C5.84351 7.70116 5.81344 7.73024 5.78174 7.75734C5.55732 7.94901 5.21826 7.94972 4.5415 7.94972H3.58154C2.90508 7.94972 2.56666 7.94897 2.34229 7.75734C2.31058 7.73024 2.28051 7.70116 2.25342 7.66945C2.06177 7.44503 2.06201 7.10595 2.06201 6.42921V5.46925C2.06201 4.79284 2.06193 4.4544 2.25342 4.23C2.2806 4.19817 2.31046 4.16832 2.34229 4.14113C2.51059 3.9974 2.74309 3.96156 3.13428 3.95265L3.58154 3.94972H4.18213ZM6.41748 2.05031C7.09407 2.05031 7.43232 2.05018 7.65674 2.24171C7.6886 2.26893 7.71839 2.29872 7.74561 2.33058C7.93726 2.555 7.93799 2.89315 7.93799 3.56984V4.5298C7.93799 5.20645 7.93719 5.54463 7.74561 5.76906C7.7184 5.80092 7.6886 5.83071 7.65674 5.85793C7.52192 5.97302 7.34606 6.01935 7.08044 6.03796C6.96129 6.0463 6.86279 5.94905 6.86279 5.82961C6.86279 5.33235 6.86327 4.92267 6.82373 4.59718C6.78302 4.26248 6.69442 3.96269 6.479 3.71046C6.42468 3.64691 6.36485 3.58703 6.30127 3.53273C6.04906 3.31763 5.74915 3.22865 5.41455 3.188C5.08908 3.14854 4.67923 3.14992 4.18213 3.14992C4.04967 3.14992 3.94152 3.04103 3.95047 2.90888C3.96852 2.64215 4.01402 2.46572 4.12939 2.33058C4.15661 2.29873 4.1864 2.26892 4.21826 2.24171C4.44268 2.05012 4.78088 2.05031 5.45752 2.05031H6.41748Z" fill="white"/>
</g>
<defs>
<filter id="filter0_i_1162_512" x="0" y="0" width="10" height="10" filterUnits="userSpaceOnUse" color-interpolation-filters="sRGB">
<feFlood flood-opacity="0" result="BackgroundImageFix"/>
<feBlend mode="normal" in="SourceGraphic" in2="BackgroundImageFix" result="shape"/>
<feColorMatrix in="SourceAlpha" type="matrix" values="0 0 0 0 0 0 0 0 0 0 0 0 0 0 0 0 0 0 127 0" result="hardAlpha"/>
<feOffset/>
<feGaussianBlur stdDeviation="1"/>
<feComposite in2="hardAlpha" operator="arithmetic" k2="-1" k3="1"/>
<feColorMatrix type="matrix" values="0 0 0 0 0.942 0 0 0 0 0.94 0 0 0 0 1 0 0 0 0.1 0"/>
<feBlend mode="hard-light" in2="shape" result="effect1_innerShadow_1162_512"/>
</filter>
</defs>
</svg>
