<svg width="10" height="10" viewBox="0 0 10 10" fill="none" xmlns="http://www.w3.org/2000/svg">
<g filter="url(#filter0_i_1675_237)">
<path fill-rule="evenodd" clip-rule="evenodd" d="M6.3435 2.66698C6.61678 2.39384 7.06039 2.39296 7.33373 2.666C7.6068 2.93926 7.60668 3.3829 7.33373 3.65623L6.79608 4.19388C6.43718 4.55279 6.25773 4.73224 6.24036 4.95291C6.23789 4.98424 6.23789 5.01572 6.24036 5.04706C6.25773 5.26773 6.43718 5.44718 6.79608 5.80609L7.33373 6.34373C7.60672 6.61705 7.60676 7.06068 7.33373 7.33397C7.06039 7.60701 6.61678 7.60613 6.3435 7.33299L5.80585 6.79534C5.44694 6.43644 5.26749 6.25699 5.04682 6.23962C5.01549 6.23715 4.98401 6.23715 4.95267 6.23962C4.732 6.25699 4.55255 6.43644 4.19365 6.79534L3.656 7.33299C3.38263 7.60636 2.93913 7.60636 2.66576 7.33299C2.39298 7.05958 2.39357 6.61691 2.66674 6.34373L3.20439 5.80609C3.56329 5.44718 3.74274 5.26773 3.76011 5.04706C3.76258 5.01572 3.76258 4.98424 3.76011 4.95291C3.74274 4.73224 3.56329 4.55279 3.20439 4.19388L2.66674 3.65623C2.39355 3.38304 2.39292 2.94039 2.66576 2.66698C2.93913 2.39361 3.38263 2.39361 3.656 2.66698L4.19365 3.20462C4.55255 3.56353 4.732 3.74298 4.95267 3.76035C4.98401 3.76282 5.01549 3.76282 5.04682 3.76035C5.26749 3.74298 5.44694 3.56353 5.80585 3.20463L6.3435 2.66698Z" fill="white"/>
</g>
<defs>
<filter id="filter0_i_1675_237" x="0" y="0" width="10" height="10" filterUnits="userSpaceOnUse" color-interpolation-filters="sRGB">
<feFlood flood-opacity="0" result="BackgroundImageFix"/>
<feBlend mode="normal" in="SourceGraphic" in2="BackgroundImageFix" result="shape"/>
<feColorMatrix in="SourceAlpha" type="matrix" values="0 0 0 0 0 0 0 0 0 0 0 0 0 0 0 0 0 0 127 0" result="hardAlpha"/>
<feOffset/>
<feGaussianBlur stdDeviation="1"/>
<feComposite in2="hardAlpha" operator="arithmetic" k2="-1" k3="1"/>
<feColorMatrix type="matrix" values="0 0 0 0 0.942 0 0 0 0 0.94 0 0 0 0 1 0 0 0 0.1 0"/>
<feBlend mode="hard-light" in2="shape" result="effect1_innerShadow_1675_237"/>
</filter>
</defs>
</svg>
