<svg width="10" height="10" viewBox="0 0 10 10" fill="none" xmlns="http://www.w3.org/2000/svg">
<g filter="url(#filter0_i_1093_16)">
<path d="M5.29932 1.94818C5.64898 1.94818 5.82412 1.94744 5.98486 2.00385C6.00841 2.01211 6.03133 2.02216 6.0542 2.03217C6.21027 2.10047 6.33834 2.21955 6.59424 2.45795L6.94482 2.78412C7.22691 3.04692 7.36821 3.17856 7.44971 3.34662C7.4616 3.37116 7.47208 3.39639 7.48193 3.42181C7.54937 3.59601 7.55027 3.78918 7.55029 4.17474V6.53217C7.55033 7.20965 7.54986 7.54886 7.35791 7.77338C7.33077 7.80508 7.30079 7.83418 7.26904 7.86127C7.0443 8.05297 6.70537 8.05252 6.02783 8.0517L3.96826 8.04974C3.29226 8.04893 2.95409 8.04805 2.72998 7.85638C2.69829 7.82926 2.66819 7.80023 2.64111 7.76849C2.44972 7.54415 2.44971 7.20525 2.44971 6.52924V3.46771C2.44971 2.79104 2.45043 2.45286 2.64209 2.22845C2.6693 2.19661 2.69911 2.16679 2.73096 2.13959C2.95538 1.94808 3.29366 1.94818 3.97021 1.94818H5.29932ZM3.74951 6.34955C3.50121 6.34965 3.29954 6.55147 3.29932 6.79974C3.29932 7.04821 3.50107 7.24984 3.74951 7.24994H5.74951C5.99804 7.24994 6.19971 7.04827 6.19971 6.79974C6.19948 6.5514 5.9979 6.34955 5.74951 6.34955H3.74951ZM3.74951 4.95013C3.50106 4.95022 3.29932 5.15185 3.29932 5.40033C3.2994 5.64873 3.50111 5.85044 3.74951 5.85052H5.74951C5.99799 5.85052 6.19962 5.64879 6.19971 5.40033C6.19971 5.1518 5.99804 4.95013 5.74951 4.95013H3.74951ZM5.93115 2.77728C5.88655 2.74289 5.72115 2.61978 5.50049 2.68158C5.46436 2.69177 5.42877 2.70625 5.396 2.72455C5.19534 2.83692 5.16587 3.04196 5.15869 3.0976C5.14949 3.16902 5.1499 3.2558 5.1499 3.31732V3.79779C5.1499 3.82153 5.14976 3.87627 5.15576 3.92572C5.16295 3.9845 5.18415 4.08662 5.26514 4.18158C5.28142 4.20063 5.2998 4.21902 5.31885 4.23529C5.41373 4.3161 5.51598 4.33749 5.57471 4.34467C5.62403 4.35061 5.67897 4.35052 5.70264 4.35052H6.18311C6.24461 4.35053 6.33157 4.35092 6.40283 4.34174C6.459 4.33447 6.66375 4.30465 6.77588 4.10443C6.79421 4.07161 6.80864 4.03612 6.81885 3.99994C6.88075 3.77946 6.75777 3.61418 6.72314 3.56927C6.67927 3.51241 6.61723 3.45163 6.57373 3.40814L6.09229 2.9267C6.04885 2.88326 5.98803 2.82121 5.93115 2.77728Z" fill="white"/>
</g>
<defs>
<filter id="filter0_i_1093_16" x="0" y="0" width="10" height="10" filterUnits="userSpaceOnUse" color-interpolation-filters="sRGB">
<feFlood flood-opacity="0" result="BackgroundImageFix"/>
<feBlend mode="normal" in="SourceGraphic" in2="BackgroundImageFix" result="shape"/>
<feColorMatrix in="SourceAlpha" type="matrix" values="0 0 0 0 0 0 0 0 0 0 0 0 0 0 0 0 0 0 127 0" result="hardAlpha"/>
<feOffset/>
<feGaussianBlur stdDeviation="1"/>
<feComposite in2="hardAlpha" operator="arithmetic" k2="-1" k3="1"/>
<feColorMatrix type="matrix" values="0 0 0 0 0.942 0 0 0 0 0.94 0 0 0 0 1 0 0 0 0.1 0"/>
<feBlend mode="hard-light" in2="shape" result="effect1_innerShadow_1093_16"/>
</filter>
</defs>
</svg>
