<svg width="10" height="10" viewBox="0 0 10 10" fill="none" xmlns="http://www.w3.org/2000/svg">
<g filter="url(#filter0_i_1079_128)">
<path d="M7.2998 6.94922C7.68632 6.94922 7.99987 7.26293 8 7.64941C8 8.03601 7.6864 8.34961 7.2998 8.34961H2.7002C2.3136 8.34961 2 8.03601 2 7.64941C2.00013 7.26293 2.31368 6.94922 2.7002 6.94922H7.2998ZM5.19727 1.65039C5.52845 1.65061 5.79688 1.91877 5.79688 2.25V2.36853C5.79688 2.68589 5.79688 2.84457 5.87995 2.95245C5.89273 2.96905 5.90372 2.98135 5.91878 2.99591C6.01664 3.09058 6.19631 3.11089 6.55563 3.15151C6.74452 3.17286 6.87085 3.21353 6.95312 3.29102C7.06689 3.39831 7.13496 3.54591 7.1416 3.70215C7.15171 3.94024 6.90921 4.21913 6.42578 4.77734L5.8584 5.43262C5.48026 5.86926 5.29135 6.08837 5.04883 6.10938C5.01465 6.11231 4.97949 6.11231 4.94531 6.10938C4.70283 6.08832 4.51386 5.86923 4.13574 5.43262L3.56836 4.77734C3.08496 4.21916 2.84341 3.94023 2.85352 3.70215C2.86016 3.54592 2.92726 3.39831 3.04102 3.29102C3.12328 3.21351 3.24962 3.17284 3.43851 3.15149C3.79783 3.11089 3.97749 3.09058 4.07536 2.99592C4.09041 2.98135 4.10141 2.96905 4.11419 2.95245C4.19727 2.84457 4.19727 2.68589 4.19727 2.36853V2.25C4.19727 1.91863 4.4655 1.65039 4.79688 1.65039H5.19727Z" fill="white"/>
</g>
<defs>
<filter id="filter0_i_1079_128" x="0" y="0" width="10" height="10" filterUnits="userSpaceOnUse" color-interpolation-filters="sRGB">
<feFlood flood-opacity="0" result="BackgroundImageFix"/>
<feBlend mode="normal" in="SourceGraphic" in2="BackgroundImageFix" result="shape"/>
<feColorMatrix in="SourceAlpha" type="matrix" values="0 0 0 0 0 0 0 0 0 0 0 0 0 0 0 0 0 0 127 0" result="hardAlpha"/>
<feOffset/>
<feGaussianBlur stdDeviation="1"/>
<feComposite in2="hardAlpha" operator="arithmetic" k2="-1" k3="1"/>
<feColorMatrix type="matrix" values="0 0 0 0 0.942 0 0 0 0 0.94 0 0 0 0 1 0 0 0 0.1 0"/>
<feBlend mode="hard-light" in2="shape" result="effect1_innerShadow_1079_128"/>
</filter>
</defs>
</svg>
