<svg width="10" height="10" viewBox="0 0 10 10" fill="none" xmlns="http://www.w3.org/2000/svg">
<g filter="url(#filter0_i_1093_24)">
<path d="M5 2C6.65685 2 8 3.34315 8 5C7.99987 6.65674 6.65677 8 5 8C3.34324 7.99999 2.00013 6.65673 2 5C2 3.34315 3.34316 2.00001 5 2ZM3.36914 3.69434C3.35211 3.70021 3.33542 3.70771 3.31934 3.71582C3.20706 3.77255 3.14103 3.8949 3.00977 4.13867L2.91504 4.31543C2.77333 4.57861 2.70235 4.7104 2.72266 4.84277C2.72556 4.86158 2.7298 4.88024 2.73535 4.89844C2.77442 5.02646 2.89516 5.11436 3.13672 5.29004L3.375 5.46387C3.52657 5.5741 3.60234 5.62909 3.65234 5.70508C3.65965 5.71618 3.66645 5.72761 3.67285 5.73926C3.71663 5.81903 3.73032 5.91202 3.75684 6.09766L3.81348 6.49512C3.85261 6.76903 3.87219 6.90612 3.95801 6.99805C3.97033 7.01125 3.98405 7.02374 3.99805 7.03516C4.09545 7.11438 4.23334 7.12481 4.50879 7.14551L5.47754 7.21777C5.67288 7.23245 5.77099 7.23987 5.85742 7.20508C5.86972 7.20011 5.88181 7.19465 5.89355 7.18848C5.976 7.14509 6.03421 7.06566 6.14941 6.90723L6.38867 6.57812C6.68994 6.16382 6.84016 5.95635 6.78613 5.76855C6.77874 5.74293 6.76917 5.71798 6.75684 5.69434C6.66626 5.52124 6.41393 5.47538 5.91016 5.38379L5.42578 5.29492C5.18578 5.25128 5.06567 5.22974 4.98145 5.1543C4.96928 5.14338 4.95703 5.13147 4.94629 5.11914C4.87218 5.03385 4.85257 4.91325 4.8125 4.67285L4.7793 4.47363C4.74299 4.25581 4.72475 4.14655 4.66016 4.06543C4.65082 4.05371 4.64047 4.04283 4.62988 4.03223C4.5566 3.95892 4.45044 3.92878 4.23828 3.86816L3.8877 3.76758C3.62154 3.69153 3.48812 3.65338 3.36914 3.69434ZM5.17871 2.78711C5.07062 2.78012 4.964 2.81784 4.88379 2.89062C4.86525 2.90747 4.84732 2.92813 4.8125 2.96875C4.74111 3.05204 4.70508 3.0937 4.68457 3.13184C4.59372 3.30119 4.63666 3.51201 4.78613 3.63281C4.81989 3.65996 4.86955 3.68431 4.96777 3.7334L5.35742 3.92871C5.42466 3.96231 5.45858 3.9794 5.48828 4.00195C5.49253 4.00519 5.49686 4.00832 5.50098 4.01172C5.52968 4.03545 5.55362 4.06446 5.60156 4.12207L6.08789 4.70605C6.11713 4.74119 6.1323 4.75892 6.14844 4.77441C6.18698 4.81137 6.23235 4.84031 6.28223 4.85938C6.30306 4.86733 6.32515 4.87339 6.36914 4.88477C6.51516 4.92252 6.58878 4.94175 6.65039 4.93848C6.80005 4.93047 6.93281 4.8389 6.99414 4.70215C7.0193 4.64588 7.02757 4.5705 7.04492 4.4209L7.06543 4.24805C7.07985 4.12374 7.08728 4.06145 7.07617 4.00195C7.07092 3.97393 7.06283 3.94619 7.05176 3.91992C7.02821 3.86406 6.987 3.81662 6.90625 3.7207L6.47363 3.20605C6.39232 3.10947 6.35104 3.06138 6.29883 3.02832C6.2912 3.02349 6.28333 3.01797 6.27539 3.01367C6.22117 2.98444 6.15877 2.97297 6.03516 2.94922L5.28223 2.80469C5.22984 2.79462 5.20364 2.78875 5.17871 2.78711Z" fill="white"/>
</g>
<defs>
<filter id="filter0_i_1093_24" x="0" y="0" width="10" height="10" filterUnits="userSpaceOnUse" color-interpolation-filters="sRGB">
<feFlood flood-opacity="0" result="BackgroundImageFix"/>
<feBlend mode="normal" in="SourceGraphic" in2="BackgroundImageFix" result="shape"/>
<feColorMatrix in="SourceAlpha" type="matrix" values="0 0 0 0 0 0 0 0 0 0 0 0 0 0 0 0 0 0 127 0" result="hardAlpha"/>
<feOffset/>
<feGaussianBlur stdDeviation="1"/>
<feComposite in2="hardAlpha" operator="arithmetic" k2="-1" k3="1"/>
<feColorMatrix type="matrix" values="0 0 0 0 0.942 0 0 0 0 0.94 0 0 0 0 1 0 0 0 0.1 0"/>
<feBlend mode="hard-light" in2="shape" result="effect1_innerShadow_1093_24"/>
</filter>
</defs>
</svg>
