<svg width="10" height="10" viewBox="0 0 10 10" fill="none" xmlns="http://www.w3.org/2000/svg">
<g filter="url(#filter0_i_1079_1014)">
<path d="M8 6C8.00003 6.74971 8.00046 7.12485 7.80957 7.3877C7.74793 7.47255 7.67273 7.54674 7.58789 7.6084C7.32503 7.79939 6.95014 7.7998 6.2002 7.7998H3.7998C3.05013 7.7998 2.67493 7.79935 2.41211 7.6084C2.32744 7.54682 2.25296 7.47238 2.19141 7.3877C2.00044 7.12485 2 6.74982 2 6V5.81961C2 5.51963 2 5.36964 2.07639 5.2645C2.10107 5.23054 2.13093 5.20067 2.16489 5.176C2.27003 5.09961 2.42002 5.09961 2.72 5.09961H7.28C7.57998 5.09961 7.72997 5.09961 7.83511 5.176C7.86907 5.20067 7.89893 5.23054 7.92361 5.2645C8 5.36964 8 5.51963 8 5.81961V6ZM3.7666 2.2002C4.04271 2.20144 4.30603 2.31642 4.49414 2.51855C4.49553 2.52005 4.4972 2.52138 4.5 2.52441C4.50296 2.52762 4.50443 2.52972 4.50586 2.53125C4.69397 2.73339 4.95729 2.84836 5.2334 2.84961H6.2002C6.95004 2.84961 7.32504 2.85005 7.58789 3.04102C7.67258 3.10256 7.747 3.17707 7.80859 3.26172C7.83432 3.29713 7.85658 3.3346 7.87583 3.37475C7.97363 3.57871 8.02252 3.68069 7.96234 3.84054C7.9473 3.88051 7.90645 3.94539 7.87692 3.97623C7.7588 4.09961 7.59097 4.09961 7.25532 4.09961H2.37012C2.16571 4.09961 2 3.9339 2 3.72949C2 3.23573 2.00066 2.98896 2.08594 2.7959C2.18656 2.56822 2.36806 2.38584 2.5957 2.28516C2.78881 2.19981 3.0363 2.2002 3.53027 2.2002H3.7666Z" fill="white"/>
</g>
<defs>
<filter id="filter0_i_1079_1014" x="0" y="0" width="10" height="10" filterUnits="userSpaceOnUse" color-interpolation-filters="sRGB">
<feFlood flood-opacity="0" result="BackgroundImageFix"/>
<feBlend mode="normal" in="SourceGraphic" in2="BackgroundImageFix" result="shape"/>
<feColorMatrix in="SourceAlpha" type="matrix" values="0 0 0 0 0 0 0 0 0 0 0 0 0 0 0 0 0 0 127 0" result="hardAlpha"/>
<feOffset/>
<feGaussianBlur stdDeviation="1"/>
<feComposite in2="hardAlpha" operator="arithmetic" k2="-1" k3="1"/>
<feColorMatrix type="matrix" values="0 0 0 0 0.942 0 0 0 0 0.94 0 0 0 0 1 0 0 0 0.1 0"/>
<feBlend mode="hard-light" in2="shape" result="effect1_innerShadow_1079_1014"/>
</filter>
</defs>
</svg>
