<svg width="10" height="10" viewBox="0 0 10 10" fill="none" xmlns="http://www.w3.org/2000/svg">
<g filter="url(#filter0_i_1164_176)">
<path d="M6.65039 5.25C6.92622 5.25021 7.15018 5.47417 7.15039 5.75C7.15039 5.84245 7.15039 5.88868 7.16049 5.92662C7.18816 6.0305 7.2693 6.11164 7.37319 6.13931C7.41113 6.14941 7.45735 6.14941 7.5498 6.14941C7.82569 6.14941 8.04938 6.37363 8.0498 6.64941C8.0498 6.92556 7.82595 7.14941 7.5498 7.14941C7.45735 7.14941 7.41113 7.14941 7.37319 7.15952C7.2693 7.18718 7.18816 7.26833 7.16049 7.37221C7.15039 7.41015 7.15039 7.4567 7.15039 7.5498C7.15039 7.82582 6.92635 8.04959 6.65039 8.0498C6.37435 8.04969 6.15039 7.82588 6.15039 7.5498C6.15039 7.45644 6.15039 7.40976 6.14009 7.37147C6.1123 7.26818 6.03162 7.1875 5.92833 7.15972C5.89004 7.14941 5.84336 7.14941 5.75 7.14941C5.47396 7.1493 5.25 6.92549 5.25 6.64941C5.25042 6.3737 5.47422 6.14953 5.75 6.14941C5.8431 6.14941 5.88965 6.14941 5.92759 6.13931C6.03148 6.11164 6.11262 6.0305 6.14029 5.92662C6.15039 5.88868 6.15039 5.84245 6.15039 5.75C6.1506 5.47411 6.37448 5.25012 6.65039 5.25ZM3.2002 5.4502C3.71547 5.4502 3.97334 5.45001 4.15527 5.5791C4.21939 5.62463 4.27578 5.68098 4.32129 5.74512C4.45009 5.92705 4.4502 6.18519 4.4502 6.7002C4.4502 7.21536 4.45037 7.47336 4.32129 7.65527C4.27582 7.71934 4.21932 7.77481 4.15527 7.82031C3.97334 7.9494 3.71547 7.9502 3.2002 7.9502C2.68479 7.9502 2.42708 7.94942 2.24512 7.82031C2.18102 7.77482 2.12461 7.71935 2.0791 7.65527C1.95002 7.47336 1.9502 7.21536 1.9502 6.7002C1.9502 6.18501 1.95016 5.92706 2.0791 5.74512C2.12466 5.68091 2.18091 5.62466 2.24512 5.5791C2.42707 5.45003 2.68484 5.4502 3.2002 5.4502ZM3.2002 1.9502C3.71547 1.9502 3.97334 1.95001 4.15527 2.0791C4.21939 2.12463 4.27578 2.18098 4.32129 2.24512C4.45009 2.42705 4.4502 2.68519 4.4502 3.2002C4.4502 3.71536 4.45037 3.97336 4.32129 4.15527C4.27582 4.21934 4.21932 4.27481 4.15527 4.32031C3.97334 4.4494 3.71547 4.4502 3.2002 4.4502C2.68479 4.4502 2.42708 4.44942 2.24512 4.32031C2.18102 4.27482 2.12461 4.21935 2.0791 4.15527C1.95002 3.97336 1.9502 3.71536 1.9502 3.2002C1.9502 2.68501 1.95016 2.42706 2.0791 2.24512C2.12466 2.18091 2.18091 2.12466 2.24512 2.0791C2.42707 1.95003 2.68483 1.9502 3.2002 1.9502ZM6.7002 1.9502C7.21547 1.9502 7.47334 1.95001 7.65527 2.0791C7.71939 2.12463 7.77578 2.18098 7.82129 2.24512C7.9501 2.42705 7.9502 2.68519 7.9502 3.2002C7.9502 3.71536 7.95037 3.97336 7.82129 4.15527C7.77582 4.21934 7.71932 4.27481 7.65527 4.32031C7.47334 4.4494 7.21547 4.4502 6.7002 4.4502C6.18479 4.4502 5.92708 4.44942 5.74512 4.32031C5.68102 4.27482 5.62461 4.21935 5.5791 4.15527C5.45002 3.97336 5.4502 3.71536 5.4502 3.2002C5.4502 2.68502 5.45017 2.42706 5.5791 2.24512C5.62466 2.18091 5.68091 2.12466 5.74512 2.0791C5.92707 1.95003 6.18483 1.9502 6.7002 1.9502Z" fill="white"/>
</g>
<defs>
<filter id="filter0_i_1164_176" x="0" y="0" width="10" height="10" filterUnits="userSpaceOnUse" color-interpolation-filters="sRGB">
<feFlood flood-opacity="0" result="BackgroundImageFix"/>
<feBlend mode="normal" in="SourceGraphic" in2="BackgroundImageFix" result="shape"/>
<feColorMatrix in="SourceAlpha" type="matrix" values="0 0 0 0 0 0 0 0 0 0 0 0 0 0 0 0 0 0 127 0" result="hardAlpha"/>
<feOffset/>
<feGaussianBlur stdDeviation="1"/>
<feComposite in2="hardAlpha" operator="arithmetic" k2="-1" k3="1"/>
<feColorMatrix type="matrix" values="0 0 0 0 0.942 0 0 0 0 0.94 0 0 0 0 1 0 0 0 0.1 0"/>
<feBlend mode="hard-light" in2="shape" result="effect1_innerShadow_1164_176"/>
</filter>
</defs>
</svg>
