<svg width="10" height="10" viewBox="0 0 10 10" fill="none" xmlns="http://www.w3.org/2000/svg">
<g filter="url(#filter0_i_1134_3133)">
<path d="M5.14062 4.06494C5.45977 4.13008 5.7002 4.41209 5.7002 4.75049V6.63054C5.7002 6.74618 5.77069 6.84747 5.85812 6.92315C6.00597 7.05113 6.09961 7.23963 6.09961 7.45068C6.0994 7.83697 5.78668 8.14969 5.40039 8.1499H4.59961C4.21332 8.14969 3.9006 7.83697 3.90039 7.45068C3.90039 7.23963 3.99404 7.05113 4.14188 6.92315C4.22931 6.84747 4.2998 6.74618 4.2998 6.63054V5.5685C4.2998 5.45295 4.22945 5.35173 4.14197 5.27623C3.99424 5.14872 3.90045 4.96129 3.90039 4.75049C3.90039 4.36402 4.21319 4.05051 4.59961 4.05029H5C5.0482 4.05029 5.09517 4.05566 5.14062 4.06494ZM4.90039 1.8501C5.34191 1.85031 5.69998 2.20839 5.7002 2.6499C5.7002 3.0916 5.34204 3.45047 4.90039 3.45068C4.45856 3.45068 4.09961 3.09173 4.09961 2.6499C4.09982 2.20825 4.45869 1.8501 4.90039 1.8501Z" fill="white"/>
</g>
<defs>
<filter id="filter0_i_1134_3133" x="0" y="0" width="10" height="10" filterUnits="userSpaceOnUse" color-interpolation-filters="sRGB">
<feFlood flood-opacity="0" result="BackgroundImageFix"/>
<feBlend mode="normal" in="SourceGraphic" in2="BackgroundImageFix" result="shape"/>
<feColorMatrix in="SourceAlpha" type="matrix" values="0 0 0 0 0 0 0 0 0 0 0 0 0 0 0 0 0 0 127 0" result="hardAlpha"/>
<feOffset/>
<feGaussianBlur stdDeviation="1"/>
<feComposite in2="hardAlpha" operator="arithmetic" k2="-1" k3="1"/>
<feColorMatrix type="matrix" values="0 0 0 0 0.942 0 0 0 0 0.94 0 0 0 0 1 0 0 0 0.1 0"/>
<feBlend mode="hard-light" in2="shape" result="effect1_innerShadow_1134_3133"/>
</filter>
</defs>
</svg>
