<svg width="10" height="10" viewBox="0 0 10 10" fill="none" xmlns="http://www.w3.org/2000/svg">
<g filter="url(#filter0_i_1145_2665)">
<path d="M5 1.7998C6.76731 1.79981 8.2002 3.23269 8.2002 5C8.2002 6.76731 6.76731 8.20019 5 8.2002C3.23269 8.2002 1.7998 6.76731 1.7998 5C1.7998 3.23269 3.23269 1.7998 5 1.7998ZM4.97951 5.34961C4.70589 5.34961 4.56908 5.34961 4.48126 5.43717C4.4696 5.44879 4.45712 5.46363 4.44765 5.4771C4.37634 5.57855 4.39827 5.70531 4.44212 5.95884C4.49478 6.26327 4.56475 6.55433 4.63672 6.80957C4.68002 6.96311 4.72368 7.10201 4.76332 7.22125C4.79763 7.32444 4.89126 7.40039 5 7.40039C5.03935 7.40039 5.05903 7.40039 5.08805 7.39461C5.17018 7.37825 5.26127 7.3084 5.29838 7.23332C5.31149 7.2068 5.31808 7.18224 5.33128 7.13313C5.35655 7.03904 5.38304 6.93544 5.40918 6.82422C5.47039 6.56369 5.53064 6.2652 5.57555 5.95251C5.61202 5.69867 5.63025 5.57175 5.55868 5.47326C5.54908 5.46004 5.53677 5.44584 5.52506 5.43446C5.43774 5.34961 5.3026 5.34961 5.03233 5.34961C5.01473 5.34961 4.99712 5.34961 4.97951 5.34961ZM3.17642 5.34961C2.99277 5.34961 2.90094 5.34961 2.82164 5.40793C2.77268 5.44394 2.72363 5.51673 2.70864 5.57564C2.68437 5.67103 2.71535 5.7475 2.77731 5.90043C2.98468 6.41227 3.36355 6.8355 3.84333 7.1001C3.9111 7.13747 3.98389 7.07351 3.96289 6.99902C3.86719 6.65957 3.77012 6.24664 3.7103 5.81024C3.68546 5.62906 3.67304 5.53847 3.63284 5.47988C3.60273 5.43599 3.5676 5.40535 3.52003 5.38148C3.45652 5.34961 3.36316 5.34961 3.17642 5.34961ZM6.82728 5.34961C6.64163 5.34961 6.54881 5.34961 6.48541 5.38136C6.436 5.4061 6.39888 5.43918 6.36863 5.48543C6.32983 5.54477 6.31952 5.6341 6.2989 5.81274C6.24937 6.24187 6.16972 6.64858 6.09082 6.98438C6.07474 7.0528 6.14266 7.10815 6.20342 7.07282C6.662 6.80629 7.02368 6.39324 7.22401 5.89694C7.28447 5.74719 7.31469 5.67231 7.29177 5.57844C7.2769 5.51756 7.22631 5.44258 7.17542 5.406C7.09696 5.34961 7.00706 5.34961 6.82728 5.34961ZM3.96289 3.00098C3.98399 2.92613 3.91059 2.86178 3.84251 2.89936C3.36296 3.16408 2.98443 3.58764 2.77722 4.09955C2.71529 4.25255 2.68433 4.32905 2.70861 4.42442C2.72361 4.48333 2.77266 4.55609 2.82164 4.5921C2.90092 4.65039 3.0006 4.65039 3.19995 4.65039C3.37099 4.65039 3.45651 4.65039 3.52001 4.61853C3.56759 4.59465 3.60272 4.56401 3.63283 4.52011C3.67303 4.46152 3.68545 4.37093 3.71028 4.18975C3.7701 3.75335 3.86718 3.34046 3.96289 3.00098ZM5 2.59961C4.8913 2.59961 4.79766 2.67457 4.7635 2.77777C4.72385 2.89756 4.68019 3.03723 4.63672 3.19141C4.56481 3.4465 4.49485 3.73715 4.4422 4.04116C4.39829 4.29465 4.37634 4.4214 4.44765 4.52287C4.45711 4.53634 4.46961 4.55119 4.48126 4.56281C4.56908 4.65039 4.7059 4.65039 4.97952 4.65039H5.03231C5.30259 4.65039 5.43773 4.65039 5.52506 4.56552C5.53677 4.55414 5.54908 4.53993 5.55868 4.52672C5.63025 4.4282 5.61199 4.30129 5.57548 4.04748C5.53056 3.73521 5.47034 3.43713 5.40918 3.17676C5.38288 3.06484 5.35634 2.96054 5.33104 2.86589C5.31814 2.81765 5.3117 2.79354 5.29861 2.76698C5.26158 2.69185 5.1703 2.62177 5.08815 2.6054C5.05912 2.59961 5.03941 2.59961 5 2.59961ZM6.09082 3.0166C6.16968 3.3523 6.24933 3.75854 6.29886 4.18727C6.31951 4.36593 6.32983 4.45526 6.36864 4.5146C6.39889 4.56084 6.436 4.59391 6.48541 4.61865C6.54881 4.65039 6.63379 4.65039 6.80376 4.65039C6.99925 4.65039 7.09699 4.65039 7.17544 4.59402C7.22634 4.55745 7.27692 4.48251 7.2918 4.42163C7.31474 4.32779 7.28453 4.25287 7.2241 4.10303C7.02405 3.60695 6.66303 3.19379 6.20507 2.92713C6.14366 2.89138 6.07457 2.94743 6.09082 3.0166Z" fill="white"/>
</g>
<defs>
<filter id="filter0_i_1145_2665" x="0" y="0" width="10" height="10" filterUnits="userSpaceOnUse" color-interpolation-filters="sRGB">
<feFlood flood-opacity="0" result="BackgroundImageFix"/>
<feBlend mode="normal" in="SourceGraphic" in2="BackgroundImageFix" result="shape"/>
<feColorMatrix in="SourceAlpha" type="matrix" values="0 0 0 0 0 0 0 0 0 0 0 0 0 0 0 0 0 0 127 0" result="hardAlpha"/>
<feOffset/>
<feGaussianBlur stdDeviation="1"/>
<feComposite in2="hardAlpha" operator="arithmetic" k2="-1" k3="1"/>
<feColorMatrix type="matrix" values="0 0 0 0 0.942 0 0 0 0 0.94 0 0 0 0 1 0 0 0 0.1 0"/>
<feBlend mode="hard-light" in2="shape" result="effect1_innerShadow_1145_2665"/>
</filter>
</defs>
</svg>
