<svg width="10" height="10" viewBox="0 0 10 10" fill="none" xmlns="http://www.w3.org/2000/svg">
<g filter="url(#filter0_i_1079_289)">
<path d="M7.16016 3.2002C7.66761 3.2002 7.92154 3.20001 8.08984 3.34375C8.11367 3.3641 8.13589 3.38634 8.15625 3.41016C8.29997 3.57843 8.2998 3.83251 8.2998 4.33984V5.66016C8.2998 6.1677 8.29999 6.42153 8.15625 6.58984C8.13589 6.61368 8.11367 6.63588 8.08984 6.65625C7.92154 6.79999 7.66761 6.7998 7.16016 6.7998H2.83984C2.33237 6.7998 2.07846 6.79999 1.91016 6.65625C1.88633 6.63588 1.86411 6.61368 1.84375 6.58984C1.7 6.42153 1.7002 6.16771 1.7002 5.66016V4.33984C1.7002 3.83251 1.70003 3.57843 1.84375 3.41016C1.86411 3.38634 1.88633 3.3641 1.91016 3.34375C2.07846 3.20001 2.33238 3.2002 2.83984 3.2002H7.16016ZM2.7002 5.10059C2.42405 5.10059 2.2002 5.32444 2.2002 5.60059C2.20041 5.87655 2.42418 6.10059 2.7002 6.10059C2.97611 6.10047 3.19999 5.87648 3.2002 5.60059C3.2002 5.32451 2.97624 5.1007 2.7002 5.10059ZM4.09961 5.10059C3.82365 5.1008 3.59961 5.32457 3.59961 5.60059C3.59982 5.87642 3.82378 6.10037 4.09961 6.10059H5.90039C6.17622 6.10038 6.40018 5.87642 6.40039 5.60059C6.40039 5.32457 6.17635 5.1008 5.90039 5.10059H4.09961ZM7.2998 5.10059C7.02376 5.1007 6.7998 5.32451 6.7998 5.60059C6.80001 5.87648 7.02389 6.10047 7.2998 6.10059C7.57582 6.10059 7.79959 5.87655 7.7998 5.60059C7.7998 5.32444 7.57595 5.10059 7.2998 5.10059ZM2.7002 3.7002C2.42406 3.7002 2.2002 3.92406 2.2002 4.2002C2.2002 4.47634 2.42405 4.7002 2.7002 4.7002C2.97626 4.7001 3.2002 4.47628 3.2002 4.2002C3.20019 3.92412 2.97625 3.70029 2.7002 3.7002ZM4.2002 3.7002C3.92406 3.7002 3.7002 3.92406 3.7002 4.2002C3.7002 4.47634 3.92405 4.7002 4.2002 4.7002C4.47625 4.70009 4.7002 4.47627 4.7002 4.2002C4.70019 3.92412 4.47625 3.7003 4.2002 3.7002ZM5.7998 3.7002C5.52375 3.7003 5.29981 3.92412 5.2998 4.2002C5.2998 4.47627 5.52375 4.70009 5.7998 4.7002C6.07595 4.7002 6.2998 4.47634 6.2998 4.2002C6.2998 3.92406 6.07594 3.7002 5.7998 3.7002ZM7.2998 3.7002C7.02375 3.7003 6.79981 3.92412 6.7998 4.2002C6.7998 4.47627 7.02375 4.70009 7.2998 4.7002C7.57595 4.7002 7.7998 4.47634 7.7998 4.2002C7.7998 3.92406 7.57594 3.7002 7.2998 3.7002Z" fill="white"/>
</g>
<defs>
<filter id="filter0_i_1079_289" x="0" y="0" width="10" height="10" filterUnits="userSpaceOnUse" color-interpolation-filters="sRGB">
<feFlood flood-opacity="0" result="BackgroundImageFix"/>
<feBlend mode="normal" in="SourceGraphic" in2="BackgroundImageFix" result="shape"/>
<feColorMatrix in="SourceAlpha" type="matrix" values="0 0 0 0 0 0 0 0 0 0 0 0 0 0 0 0 0 0 127 0" result="hardAlpha"/>
<feOffset/>
<feGaussianBlur stdDeviation="1"/>
<feComposite in2="hardAlpha" operator="arithmetic" k2="-1" k3="1"/>
<feColorMatrix type="matrix" values="0 0 0 0 0.942 0 0 0 0 0.94 0 0 0 0 1 0 0 0 0.1 0"/>
<feBlend mode="hard-light" in2="shape" result="effect1_innerShadow_1079_289"/>
</filter>
</defs>
</svg>
