<svg width="10" height="10" viewBox="0 0 10 10" fill="none" xmlns="http://www.w3.org/2000/svg">
<g filter="url(#filter0_i_1197_478)">
<path d="M3.93311 4.6167C4.0892 3.83671 4.77436 3.27494 5.56982 3.2749H6.75049C7.70282 3.27533 8.4751 4.04806 8.4751 5.00049C8.47494 5.95278 7.70272 6.72467 6.75049 6.7251C6.5158 6.7251 6.32477 6.53496 6.32471 6.30029C6.32471 6.06557 6.51577 5.87549 6.75049 5.87549C7.23328 5.87506 7.62533 5.48334 7.62549 5.00049C7.62549 4.5175 7.23338 4.12591 6.75049 4.12549H5.56982C5.17947 4.12552 4.84365 4.40091 4.76709 4.78369C4.72109 5.01362 4.49701 5.16231 4.26709 5.1167C4.03694 5.07067 3.88709 4.84685 3.93311 4.6167ZM1.5249 5.00049C1.5249 4.04793 2.297 3.27511 3.24951 3.2749C3.48416 3.27499 3.67529 3.46602 3.67529 3.70068C3.67503 3.93512 3.48399 4.1254 3.24951 4.12549C2.76644 4.1257 2.37451 4.51737 2.37451 5.00049C2.37467 5.48347 2.76654 5.87528 3.24951 5.87549L4.43018 5.87549C4.82031 5.87537 5.1562 5.59978 5.23291 5.21728C5.27892 4.98725 5.50288 4.83751 5.73291 4.8833C5.96285 4.92939 6.11268 5.15333 6.0669 5.3833C5.91086 6.1633 5.22561 6.72498 4.43018 6.7251L3.24951 6.7251C2.2971 6.72489 1.52506 5.95291 1.5249 5.00049Z" fill="white"/>
</g>
<defs>
<filter id="filter0_i_1197_478" x="0" y="0" width="10" height="10" filterUnits="userSpaceOnUse" color-interpolation-filters="sRGB">
<feFlood flood-opacity="0" result="BackgroundImageFix"/>
<feBlend mode="normal" in="SourceGraphic" in2="BackgroundImageFix" result="shape"/>
<feColorMatrix in="SourceAlpha" type="matrix" values="0 0 0 0 0 0 0 0 0 0 0 0 0 0 0 0 0 0 127 0" result="hardAlpha"/>
<feOffset/>
<feGaussianBlur stdDeviation="1"/>
<feComposite in2="hardAlpha" operator="arithmetic" k2="-1" k3="1"/>
<feColorMatrix type="matrix" values="0 0 0 0 0.942 0 0 0 0 0.94 0 0 0 0 1 0 0 0 0.1 0"/>
<feBlend mode="hard-light" in2="shape" result="effect1_innerShadow_1197_478"/>
</filter>
</defs>
</svg>
