<svg width="10" height="10" viewBox="0 0 10 10" fill="none" xmlns="http://www.w3.org/2000/svg">
<g filter="url(#filter0_i_1134_3115)">
<path d="M7.39941 6.60059C7.73078 6.60059 8 6.86882 8 7.2002C7.9999 7.53148 7.73073 7.7998 7.39941 7.7998H2.59961C2.26847 7.7996 2.0001 7.53136 2 7.2002C2 6.86895 2.26841 6.60079 2.59961 6.60059H7.39941ZM7.39941 4.40039C7.73078 4.40039 8 4.66863 8 5C8 5.33137 7.73078 5.59961 7.39941 5.59961H2.59961C2.26842 5.5994 2 5.33124 2 5C2 4.66876 2.26842 4.4006 2.59961 4.40039H7.39941ZM7.39941 2.2002C7.73073 2.2002 7.9999 2.46852 8 2.7998C8 3.13118 7.73078 3.39941 7.39941 3.39941H2.59961C2.26842 3.3992 2 3.13105 2 2.7998C2.0001 2.46864 2.26848 2.20041 2.59961 2.2002H7.39941Z" fill="white"/>
</g>
<defs>
<filter id="filter0_i_1134_3115" x="0" y="0" width="10" height="10" filterUnits="userSpaceOnUse" color-interpolation-filters="sRGB">
<feFlood flood-opacity="0" result="BackgroundImageFix"/>
<feBlend mode="normal" in="SourceGraphic" in2="BackgroundImageFix" result="shape"/>
<feColorMatrix in="SourceAlpha" type="matrix" values="0 0 0 0 0 0 0 0 0 0 0 0 0 0 0 0 0 0 127 0" result="hardAlpha"/>
<feOffset/>
<feGaussianBlur stdDeviation="1"/>
<feComposite in2="hardAlpha" operator="arithmetic" k2="-1" k3="1"/>
<feColorMatrix type="matrix" values="0 0 0 0 0.942 0 0 0 0 0.94 0 0 0 0 1 0 0 0 0.1 0"/>
<feBlend mode="hard-light" in2="shape" result="effect1_innerShadow_1134_3115"/>
</filter>
</defs>
</svg>
