<svg width="10" height="10" viewBox="0 0 10 10" fill="none" xmlns="http://www.w3.org/2000/svg">
<g filter="url(#filter0_i_1079_237)">
<path d="M5 2.49774C6.65685 2.49774 8 3.48291 8 4.69794C7.99966 5.91275 6.65664 6.89715 5 6.89716C4.70015 6.89713 4.4107 6.86313 4.1377 6.80243C4.02636 6.77777 3.90889 6.79564 3.81348 6.85809L3.66699 6.9538C3.03605 7.36537 2.72056 7.57175 2.51172 7.46063C2.48375 7.44567 2.45725 7.42707 2.43359 7.40594C2.25691 7.2482 2.34184 6.88078 2.51172 6.14618C2.53731 6.03408 2.50275 5.91758 2.42969 5.8288C2.15782 5.49833 2.00012 5.11211 2 4.69794C2 3.483 3.34331 2.49789 5 2.49774ZM3.9502 5.09149C3.7018 5.09157 3.50011 5.2933 3.5 5.54169C3.5 5.79017 3.70173 5.99181 3.9502 5.99188H5.25C5.49853 5.99188 5.7002 5.79022 5.7002 5.54169C5.70009 5.29325 5.49846 5.09149 5.25 5.09149H3.9502ZM3.9502 3.49188C3.70175 3.49197 3.5 3.69361 3.5 3.94208C3.50011 4.19046 3.70181 4.39218 3.9502 4.39227H6.05078C6.29905 4.39205 6.49989 4.19038 6.5 3.94208C6.5 3.69369 6.29912 3.49211 6.05078 3.49188H3.9502Z" fill="white"/>
</g>
<defs>
<filter id="filter0_i_1079_237" x="0" y="0" width="10" height="10" filterUnits="userSpaceOnUse" color-interpolation-filters="sRGB">
<feFlood flood-opacity="0" result="BackgroundImageFix"/>
<feBlend mode="normal" in="SourceGraphic" in2="BackgroundImageFix" result="shape"/>
<feColorMatrix in="SourceAlpha" type="matrix" values="0 0 0 0 0 0 0 0 0 0 0 0 0 0 0 0 0 0 127 0" result="hardAlpha"/>
<feOffset/>
<feGaussianBlur stdDeviation="1"/>
<feComposite in2="hardAlpha" operator="arithmetic" k2="-1" k3="1"/>
<feColorMatrix type="matrix" values="0 0 0 0 0.942 0 0 0 0 0.94 0 0 0 0 1 0 0 0 0.1 0"/>
<feBlend mode="hard-light" in2="shape" result="effect1_innerShadow_1079_237"/>
</filter>
</defs>
</svg>
