<svg width="24" height="24" viewBox="0 0 24 24" fill="none" xmlns="http://www.w3.org/2000/svg">
  <path fill="currentColor" d="M12 2.75a3.75 3.75 0 0 0-3.75 3.75v5a3.75 3.75 0 0 0 7.5 0v-5A3.75 3.75 0 0 0 12 2.75Zm-2.25 3.75a2.25 2.25 0 0 1 4.5 0v5a2.25 2.25 0 0 1-4.5 0v-5Z"/>
  <path fill="currentColor" d="M5.75 10.25a.75.75 0 0 1 .75.75v.75a5.5 5.5 0 0 0 11 0V11a.75.75 0 0 1 1.5 0v.75a7 7 0 0 1-6.25 6.96v1.04h2.5a.75.75 0 0 1 0 1.5h-6.5a.75.75 0 0 1 0-1.5h2.5v-1.04A7 7 0 0 1 5 11.75V11a.75.75 0 0 1 .75-.75Z"/>
</svg>
