<svg width="10" height="10" viewBox="0 0 10 10" fill="none" xmlns="http://www.w3.org/2000/svg">
<g filter="url(#filter0_i_1213_293)">
<path d="M5.7998 2.0498C6.04833 2.0498 6.25 2.25147 6.25 2.5C6.25 2.59881 6.25 2.64821 6.26539 2.68514C6.2767 2.71227 6.28656 2.72715 6.30713 2.74815C6.33513 2.77673 6.39202 2.80084 6.50582 2.84906C6.6129 2.89444 6.71429 2.95471 6.80859 3.03516C6.86418 3.08263 6.91636 3.13487 6.96387 3.19043C7.04461 3.28497 7.10523 3.38674 7.15084 3.49422C7.19914 3.60803 7.2233 3.66493 7.25186 3.6929C7.27288 3.71349 7.28774 3.72332 7.31491 3.73464C7.35181 3.75 7.40121 3.75 7.5 3.75C7.74847 3.75004 7.95015 3.95173 7.9502 4.2002C7.95005 4.44858 7.74841 4.65035 7.5 4.65039C7.49939 4.65039 7.49908 4.65039 7.49884 4.65039C7.38818 4.65066 7.29896 4.74039 7.29933 4.85105C7.29933 4.8513 7.29933 4.85171 7.29934 4.85253C7.29962 4.9007 7.2998 4.94986 7.2998 5C7.2998 5.05044 7.29962 5.09994 7.29934 5.14845C7.29933 5.14927 7.29933 5.14968 7.29933 5.14992C7.29896 5.26059 7.38817 5.35032 7.49885 5.35059C7.49909 5.35059 7.49939 5.35059 7.5 5.35059C7.74835 5.35063 7.94995 5.55151 7.9502 5.7998C7.95005 6.04819 7.74841 6.24996 7.5 6.25C7.40041 6.25 7.35061 6.25 7.3134 6.26566C7.28683 6.27684 7.27226 6.28648 7.25159 6.30658C7.22264 6.33471 7.1983 6.39205 7.14964 6.50673C7.10434 6.61346 7.04421 6.71452 6.96387 6.80859C6.91624 6.86435 6.86435 6.91624 6.80859 6.96387C6.71452 7.04421 6.61346 7.10434 6.50673 7.14964C6.39205 7.1983 6.33471 7.22264 6.30658 7.25159C6.28648 7.27226 6.27684 7.28683 6.26566 7.3134C6.25 7.35061 6.25 7.40041 6.25 7.5C6.24986 7.74841 6.04825 7.9502 5.7998 7.9502C5.55144 7.9501 5.34975 7.74835 5.34961 7.5C5.34961 7.49889 5.34961 7.49834 5.34961 7.49771C5.34891 7.38765 5.25898 7.29859 5.14892 7.29897C5.14829 7.29897 5.14769 7.29898 5.1465 7.29899C5.09861 7.29946 5.04976 7.2998 5 7.2998C4.95019 7.2998 4.90136 7.29946 4.8535 7.29899C4.85231 7.29898 4.85171 7.29897 4.85108 7.29897C4.74102 7.29859 4.65109 7.38765 4.65039 7.49771C4.65039 7.49834 4.65039 7.49889 4.65039 7.5C4.65025 7.74834 4.44854 7.95009 4.2002 7.9502C3.95176 7.95019 3.75014 7.74841 3.75 7.5C3.75 7.40038 3.75 7.35058 3.73432 7.31334C3.72312 7.28675 3.71342 7.27213 3.6933 7.25145C3.66511 7.22251 3.60781 7.19827 3.49321 7.14981C3.38609 7.10451 3.28464 7.04433 3.19043 6.96387C3.13487 6.91636 3.08263 6.86418 3.03516 6.80859C2.95499 6.71462 2.89516 6.61355 2.8501 6.50683C2.80171 6.39224 2.77752 6.33495 2.74855 6.30673C2.72791 6.28662 2.71326 6.27691 2.68671 6.26571C2.64944 6.25 2.59963 6.25 2.5 6.25C2.25156 6.25 2.04995 6.04821 2.0498 5.7998C2.05005 5.55149 2.25162 5.35059 2.5 5.35059C2.5002 5.35059 2.5003 5.35059 2.50054 5.35059C2.61122 5.35032 2.70086 5.25979 2.70005 5.14912C2.70005 5.14887 2.70005 5.14873 2.70005 5.14845C2.69957 5.09994 2.69922 5.05044 2.69922 5C2.69922 4.94986 2.69957 4.9007 2.70004 4.85253C2.70004 4.85224 2.70005 4.8521 2.70005 4.85186C2.70086 4.7412 2.61121 4.65066 2.50055 4.65039C2.5003 4.65039 2.5002 4.65039 2.5 4.65039C2.25156 4.65039 2.04995 4.4486 2.0498 4.2002C2.04985 3.95171 2.2515 3.75 2.5 3.75C2.5988 3.75 2.6482 3.75 2.68516 3.73458C2.71231 3.72325 2.72727 3.71333 2.74827 3.69271C2.77684 3.66466 2.80084 3.60781 2.84882 3.4941C2.89416 3.38667 2.95445 3.28493 3.03516 3.19043C3.08276 3.13471 3.1347 3.08275 3.19043 3.03516C3.28493 2.95444 3.38667 2.89416 3.4941 2.84882C3.60781 2.80084 3.66466 2.77684 3.69271 2.74827C3.71333 2.72727 3.72325 2.71231 3.73458 2.68515C3.75 2.6482 3.75 2.5988 3.75 2.5C3.75 2.25147 3.95167 2.04981 4.2002 2.0498C4.44863 2.04991 4.65039 2.25154 4.65039 2.5C4.65039 2.5002 4.65039 2.5003 4.65039 2.50055C4.65066 2.61121 4.7412 2.70086 4.85186 2.70005C4.8521 2.70005 4.85224 2.70004 4.85253 2.70004C4.9007 2.69957 4.94986 2.69922 5 2.69922C5.0501 2.69922 5.09928 2.69957 5.14747 2.70004C5.14776 2.70004 5.1479 2.70005 5.14814 2.70005C5.2588 2.70086 5.34934 2.61121 5.34961 2.50055C5.34961 2.5003 5.34961 2.5002 5.34961 2.5C5.34961 2.25153 5.55135 2.0499 5.7998 2.0498ZM5 3.5C4.56745 3.5 4.27824 3.50009 4.06152 3.52637C3.85425 3.55158 3.76616 3.59556 3.70996 3.64355C3.68614 3.66391 3.66391 3.68614 3.64355 3.70996C3.59556 3.76616 3.55158 3.85427 3.52637 4.06152C3.50009 4.27823 3.5 4.56746 3.5 5C3.5 5.43255 3.50009 5.72176 3.52637 5.93848C3.55151 6.1452 3.59571 6.23285 3.64355 6.28906C3.6638 6.31276 3.68629 6.3352 3.70996 6.35547C3.76615 6.40346 3.85432 6.44744 4.06152 6.47266C4.27824 6.49893 4.56744 6.5 5 6.5C5.43263 6.5 5.72175 6.49895 5.93848 6.47266C6.14572 6.44745 6.23286 6.40346 6.28906 6.35547C6.31292 6.33509 6.33509 6.31292 6.35547 6.28906C6.40345 6.23286 6.44745 6.14569 6.47266 5.93848C6.49894 5.72175 6.5 5.43262 6.5 5C6.5 4.56745 6.49893 4.27824 6.47266 4.06152C6.44744 3.85433 6.40346 3.76615 6.35547 3.70996C6.3352 3.68629 6.31276 3.6638 6.28906 3.64355C6.23285 3.59571 6.1452 3.55151 5.93848 3.52637C5.72176 3.50009 5.43257 3.5 5 3.5ZM5.04004 4.2002C5.3784 4.2002 5.54795 4.20006 5.66016 4.2959C5.67591 4.30938 5.69062 4.32409 5.7041 4.33984C5.79993 4.45205 5.7998 4.62163 5.7998 4.95996V5.04004C5.7998 5.37841 5.79994 5.54795 5.7041 5.66016C5.69062 5.67592 5.67591 5.69062 5.66016 5.7041C5.54795 5.79994 5.3784 5.7998 5.04004 5.7998H4.95996C4.62162 5.7998 4.45205 5.79993 4.33984 5.7041C4.32409 5.69062 4.30938 5.67592 4.2959 5.66016C4.20006 5.54795 4.2002 5.37841 4.2002 5.04004V4.95996C4.2002 4.62163 4.20007 4.45205 4.2959 4.33984C4.30938 4.32409 4.32409 4.30938 4.33984 4.2959C4.45205 4.20007 4.62162 4.2002 4.95996 4.2002H5.04004Z" fill="white"/>
</g>
<defs>
<filter id="filter0_i_1213_293" x="0" y="0" width="10" height="10" filterUnits="userSpaceOnUse" color-interpolation-filters="sRGB">
<feFlood flood-opacity="0" result="BackgroundImageFix"/>
<feBlend mode="normal" in="SourceGraphic" in2="BackgroundImageFix" result="shape"/>
<feColorMatrix in="SourceAlpha" type="matrix" values="0 0 0 0 0 0 0 0 0 0 0 0 0 0 0 0 0 0 127 0" result="hardAlpha"/>
<feOffset/>
<feGaussianBlur stdDeviation="1"/>
<feComposite in2="hardAlpha" operator="arithmetic" k2="-1" k3="1"/>
<feColorMatrix type="matrix" values="0 0 0 0 0.942 0 0 0 0 0.94 0 0 0 0 1 0 0 0 0.1 0"/>
<feBlend mode="hard-light" in2="shape" result="effect1_innerShadow_1213_293"/>
</filter>
</defs>
</svg>
