<svg width="10" height="10" viewBox="0 0 10 10" fill="none" xmlns="http://www.w3.org/2000/svg">
<g filter="url(#filter0_i_1079_290)">
<path d="M5 2.19971C6.10444 2.19971 6.99979 3.09532 7 4.19971V5.80029C6.9999 6.90478 6.10451 7.80029 5 7.80029C3.89549 7.80029 3.0001 6.90477 3 5.80029V4.19971C3.00021 3.09532 3.89556 2.19971 5 2.19971ZM5 3.07373C4.72386 3.07373 4.5 3.29759 4.5 3.57373V4.57373C4.50023 4.84968 4.724 5.07373 5 5.07373C5.27582 5.07352 5.49977 4.84954 5.5 4.57373V3.57373C5.5 3.29772 5.27596 3.07394 5 3.07373Z" fill="white"/>
</g>
<defs>
<filter id="filter0_i_1079_290" x="0" y="0" width="10" height="10" filterUnits="userSpaceOnUse" color-interpolation-filters="sRGB">
<feFlood flood-opacity="0" result="BackgroundImageFix"/>
<feBlend mode="normal" in="SourceGraphic" in2="BackgroundImageFix" result="shape"/>
<feColorMatrix in="SourceAlpha" type="matrix" values="0 0 0 0 0 0 0 0 0 0 0 0 0 0 0 0 0 0 127 0" result="hardAlpha"/>
<feOffset/>
<feGaussianBlur stdDeviation="1"/>
<feComposite in2="hardAlpha" operator="arithmetic" k2="-1" k3="1"/>
<feColorMatrix type="matrix" values="0 0 0 0 0.942 0 0 0 0 0.94 0 0 0 0 1 0 0 0 0.1 0"/>
<feBlend mode="hard-light" in2="shape" result="effect1_innerShadow_1079_290"/>
</filter>
</defs>
</svg>
