<svg width="10" height="10" viewBox="0 0 10 10" fill="none" xmlns="http://www.w3.org/2000/svg">
<g filter="url(#filter0_i_1142_1115)">
<path d="M7.54598 3.44428C7.78016 3.20995 7.77956 2.82988 7.54529 2.59561L7.40442 2.45474C7.17016 2.22048 6.79008 2.21988 6.55576 2.45405L6.47091 2.53891C6.35127 2.65854 6.29145 2.71836 6.28566 2.79191C6.28484 2.80236 6.28484 2.81285 6.28566 2.8233C6.29145 2.89685 6.35127 2.95667 6.47091 3.07631L6.92373 3.52913C7.04336 3.64877 7.10318 3.70858 7.17674 3.71437C7.18718 3.7152 7.19768 3.7152 7.20812 3.71437C7.28168 3.70858 7.3415 3.64877 7.46113 3.52913L7.54598 3.44428ZM2.52511 7.47493C2.61022 7.56001 2.73896 7.58371 2.84897 7.535L3.77014 7.12621C3.88222 7.07636 3.98448 7.00578 4.07122 6.91905L6.35749 4.63277C6.47713 4.51314 6.53694 4.45332 6.54273 4.37976C6.54356 4.36932 6.54356 4.35882 6.54273 4.34838C6.53694 4.27482 6.47713 4.215 6.35749 4.09537L5.90467 3.64254C5.78503 3.52291 5.72522 3.46309 5.65166 3.4573C5.64121 3.45648 5.63072 3.45648 5.62028 3.4573C5.54672 3.46309 5.4869 3.52291 5.36727 3.64254L3.08099 5.92882C2.99425 6.01556 2.92367 6.11781 2.87383 6.22989L2.46504 7.15107C2.41634 7.26108 2.44001 7.38983 2.52511 7.47493Z" fill="white"/>
</g>
<defs>
<filter id="filter0_i_1142_1115" x="0" y="0" width="10" height="10" filterUnits="userSpaceOnUse" color-interpolation-filters="sRGB">
<feFlood flood-opacity="0" result="BackgroundImageFix"/>
<feBlend mode="normal" in="SourceGraphic" in2="BackgroundImageFix" result="shape"/>
<feColorMatrix in="SourceAlpha" type="matrix" values="0 0 0 0 0 0 0 0 0 0 0 0 0 0 0 0 0 0 127 0" result="hardAlpha"/>
<feOffset/>
<feGaussianBlur stdDeviation="1"/>
<feComposite in2="hardAlpha" operator="arithmetic" k2="-1" k3="1"/>
<feColorMatrix type="matrix" values="0 0 0 0 0.942 0 0 0 0 0.94 0 0 0 0 1 0 0 0 0.1 0"/>
<feBlend mode="hard-light" in2="shape" result="effect1_innerShadow_1142_1115"/>
</filter>
</defs>
</svg>
