<svg width="10" height="10" viewBox="0 0 10 10" fill="none" xmlns="http://www.w3.org/2000/svg">
<g filter="url(#filter0_i_1204_239)">
<path d="M6.25925 3.6287C7.05468 4.22127 7.4524 4.51756 7.48962 4.91637C7.49481 4.972 7.49481 5.028 7.48962 5.08363C7.4524 5.48244 7.05468 5.77873 6.25925 6.3713L5.77501 6.73205C5.01262 7.3 4.63143 7.58398 4.31216 7.57055C4.05461 7.55971 3.81407 7.43895 3.65151 7.23889C3.45001 6.99089 3.45001 6.51554 3.45001 5.56486V5V4.43514C3.45001 3.48446 3.45001 3.00911 3.65151 2.76111C3.81407 2.56105 4.05461 2.44029 4.31216 2.42945C4.63143 2.41602 5.01262 2.7 5.77501 3.26795L6.25925 3.6287Z" fill="white"/>
</g>
<defs>
<filter id="filter0_i_1204_239" x="0" y="0" width="10" height="10" filterUnits="userSpaceOnUse" color-interpolation-filters="sRGB">
<feFlood flood-opacity="0" result="BackgroundImageFix"/>
<feBlend mode="normal" in="SourceGraphic" in2="BackgroundImageFix" result="shape"/>
<feColorMatrix in="SourceAlpha" type="matrix" values="0 0 0 0 0 0 0 0 0 0 0 0 0 0 0 0 0 0 127 0" result="hardAlpha"/>
<feOffset/>
<feGaussianBlur stdDeviation="1"/>
<feComposite in2="hardAlpha" operator="arithmetic" k2="-1" k3="1"/>
<feColorMatrix type="matrix" values="0 0 0 0 0.942 0 0 0 0 0.94 0 0 0 0 1 0 0 0 0.1 0"/>
<feBlend mode="hard-light" in2="shape" result="effect1_innerShadow_1204_239"/>
</filter>
</defs>
</svg>
