<svg width="10" height="10" viewBox="0 0 10 10" fill="none" xmlns="http://www.w3.org/2000/svg">
<g filter="url(#filter0_i_1141_550)">
<path d="M5 2.2998C5.38649 2.29987 5.7001 2.61352 5.7002 3V3.3448C5.7002 3.7726 5.7002 3.9865 5.82255 4.1275C5.838 4.14531 5.85469 4.162 5.8725 4.17745C6.0135 4.2998 6.2274 4.2998 6.6552 4.2998H7C7.38641 4.29992 7.70005 4.61359 7.7002 5C7.7002 5.38653 7.3865 5.70008 7 5.7002H6.6552C6.2274 5.7002 6.0135 5.7002 5.8725 5.82255C5.85469 5.838 5.838 5.85469 5.82255 5.8725C5.7002 6.0135 5.7002 6.2274 5.7002 6.6552V7C5.7002 7.38656 5.38654 7.70013 5 7.7002C4.6134 7.7002 4.2998 7.3866 4.2998 7V6.6552C4.2998 6.2274 4.2998 6.0135 4.17745 5.8725C4.162 5.85469 4.14531 5.838 4.1275 5.82255C3.9865 5.7002 3.7726 5.7002 3.3448 5.7002H3C2.6134 5.7002 2.2998 5.3866 2.2998 5C2.29995 4.61352 2.61349 4.2998 3 4.2998H3.3448C3.7726 4.2998 3.9865 4.2998 4.1275 4.17745C4.14531 4.162 4.162 4.14531 4.17745 4.1275C4.2998 3.9865 4.2998 3.7726 4.2998 3.3448V3C4.2999 2.61348 4.61346 2.2998 5 2.2998Z" fill="white"/>
</g>
<defs>
<filter id="filter0_i_1141_550" x="0" y="0" width="10" height="10" filterUnits="userSpaceOnUse" color-interpolation-filters="sRGB">
<feFlood flood-opacity="0" result="BackgroundImageFix"/>
<feBlend mode="normal" in="SourceGraphic" in2="BackgroundImageFix" result="shape"/>
<feColorMatrix in="SourceAlpha" type="matrix" values="0 0 0 0 0 0 0 0 0 0 0 0 0 0 0 0 0 0 127 0" result="hardAlpha"/>
<feOffset/>
<feGaussianBlur stdDeviation="1"/>
<feComposite in2="hardAlpha" operator="arithmetic" k2="-1" k3="1"/>
<feColorMatrix type="matrix" values="0 0 0 0 0.942 0 0 0 0 0.94 0 0 0 0 1 0 0 0 0.1 0"/>
<feBlend mode="hard-light" in2="shape" result="effect1_innerShadow_1141_550"/>
</filter>
</defs>
</svg>
