<svg width="10" height="10" viewBox="0 0 10 10" fill="none" xmlns="http://www.w3.org/2000/svg">
<g filter="url(#filter0_i_1172_129)">
<path d="M7.63031 2.46509C7.87127 2.56405 7.95006 2.91503 8.10747 3.61621L8.1786 3.93316C8.3178 4.55326 8.38761 4.86344 8.23384 5.05183C8.21261 5.07783 8.18872 5.10172 8.16271 5.12295C7.97433 5.27675 7.66417 5.20692 7.04405 5.06771L6.72709 4.99658C6.02591 4.83917 5.67493 4.76039 5.57597 4.51943C5.56248 4.48652 5.55181 4.45224 5.54559 4.41723C5.52864 4.32162 5.55348 4.2264 5.61758 4.11826C5.76502 3.86948 5.83874 3.74509 5.81516 3.63127C5.81198 3.61593 5.8069 3.59866 5.80125 3.58404C5.75937 3.47561 5.67968 3.43584 5.52031 3.3563C5.37559 3.28407 5.22114 3.23101 5.06084 3.19912C4.7071 3.12876 4.34031 3.16473 4.00708 3.3027C3.67379 3.44076 3.38853 3.67533 3.18811 3.97528C2.98786 4.27515 2.88082 4.62771 2.88082 4.9883C2.88084 5.3489 2.98782 5.70144 3.18811 6.00131C3.38853 6.30127 3.67379 6.53584 4.00708 6.67389C4.34028 6.81184 4.70713 6.84782 5.06084 6.77747C5.22089 6.74563 5.37489 6.69212 5.51935 6.62003C5.8099 6.47498 6.1812 6.46429 6.41083 6.69392C6.64011 6.92348 6.64237 7.30129 6.37285 7.48182C6.04664 7.69994 5.6787 7.85336 5.29009 7.93066C4.70819 8.04638 4.10499 7.98646 3.55685 7.75941C3.00876 7.53234 2.53992 7.14785 2.21031 6.65456C1.88084 6.16131 1.70555 5.58147 1.70553 4.9883C1.70553 4.39495 1.88136 3.8147 2.211 3.32135C2.54058 2.82823 3.0089 2.44421 3.55685 2.21718C4.105 1.99014 4.70818 1.9302 5.29009 2.04593C5.68265 2.12402 6.05377 2.27934 6.38252 2.50096C6.58342 2.63638 6.68387 2.70409 6.7601 2.71123C6.7755 2.71267 6.77792 2.71276 6.79338 2.71249C6.86993 2.71113 6.99342 2.64084 7.2404 2.50025C7.34365 2.44148 7.43536 2.41916 7.52742 2.43539C7.5625 2.44161 7.59735 2.45157 7.63031 2.46509Z" fill="white"/>
</g>
<defs>
<filter id="filter0_i_1172_129" x="0" y="0" width="10" height="10" filterUnits="userSpaceOnUse" color-interpolation-filters="sRGB">
<feFlood flood-opacity="0" result="BackgroundImageFix"/>
<feBlend mode="normal" in="SourceGraphic" in2="BackgroundImageFix" result="shape"/>
<feColorMatrix in="SourceAlpha" type="matrix" values="0 0 0 0 0 0 0 0 0 0 0 0 0 0 0 0 0 0 127 0" result="hardAlpha"/>
<feOffset/>
<feGaussianBlur stdDeviation="1"/>
<feComposite in2="hardAlpha" operator="arithmetic" k2="-1" k3="1"/>
<feColorMatrix type="matrix" values="0 0 0 0 0.942 0 0 0 0 0.94 0 0 0 0 1 0 0 0 0.1 0"/>
<feBlend mode="hard-light" in2="shape" result="effect1_innerShadow_1172_129"/>
</filter>
</defs>
</svg>
