<svg width="10" height="10" viewBox="0 0 10 10" fill="none" xmlns="http://www.w3.org/2000/svg">
<g filter="url(#filter0_i_1134_3127)">
<path d="M2 2.7C2 2.41911 2 2.27866 2.06741 2.17777C2.0966 2.1341 2.1341 2.0966 2.17777 2.06741C2.27866 2 2.41911 2 2.7 2C2.98089 2 3.12134 2 3.22223 2.06741C3.2659 2.0966 3.3034 2.1341 3.33259 2.17777C3.4 2.27866 3.4 2.41911 3.4 2.7C3.4 2.98089 3.4 3.12134 3.33259 3.22223C3.3034 3.2659 3.2659 3.3034 3.22223 3.33259C3.12134 3.4 2.98089 3.4 2.7 3.4C2.41911 3.4 2.27866 3.4 2.17777 3.33259C2.1341 3.3034 2.0966 3.2659 2.06741 3.22223C2 3.12134 2 2.98089 2 2.7Z" fill="white"/>
<path d="M4.30001 2.7C4.30001 2.41911 4.30001 2.27866 4.36742 2.17777C4.39661 2.1341 4.43411 2.0966 4.47778 2.06741C4.57867 2 4.71912 2 5.00001 2C5.2809 2 5.42135 2 5.52224 2.06741C5.56592 2.0966 5.60342 2.1341 5.6326 2.17777C5.70001 2.27866 5.70001 2.41911 5.70001 2.7C5.70001 2.98089 5.70001 3.12134 5.6326 3.22223C5.60342 3.2659 5.56592 3.3034 5.52224 3.33259C5.42135 3.4 5.2809 3.4 5.00001 3.4C4.71912 3.4 4.57867 3.4 4.47778 3.33259C4.43411 3.3034 4.39661 3.2659 4.36742 3.22223C4.30001 3.12134 4.30001 2.98089 4.30001 2.7Z" fill="white"/>
<path d="M6.6 2.7C6.6 2.41911 6.6 2.27866 6.66742 2.17777C6.6966 2.1341 6.7341 2.0966 6.77778 2.06741C6.87867 2 7.01911 2 7.3 2C7.5809 2 7.72134 2 7.82223 2.06741C7.86591 2.0966 7.90341 2.1341 7.93259 2.17777C8 2.27866 8 2.41911 8 2.7C8 2.98089 8 3.12134 7.93259 3.22223C7.90341 3.2659 7.86591 3.3034 7.82223 3.33259C7.72134 3.4 7.5809 3.4 7.3 3.4C7.01911 3.4 6.87867 3.4 6.77778 3.33259C6.7341 3.3034 6.6966 3.2659 6.66742 3.22223C6.6 3.12134 6.6 2.98089 6.6 2.7Z" fill="white"/>
<path d="M2 5.00002C2 4.71913 2 4.57869 2.06741 4.4778C2.0966 4.43412 2.1341 4.39662 2.17777 4.36744C2.27866 4.30002 2.41911 4.30002 2.7 4.30002C2.98089 4.30002 3.12134 4.30002 3.22223 4.36744C3.2659 4.39662 3.3034 4.43412 3.33259 4.4778C3.4 4.57869 3.4 4.71913 3.4 5.00002C3.4 5.28092 3.4 5.42136 3.33259 5.52225C3.3034 5.56593 3.2659 5.60343 3.22223 5.63261C3.12134 5.70002 2.98089 5.70002 2.7 5.70002C2.41911 5.70002 2.27866 5.70002 2.17777 5.63261C2.1341 5.60343 2.0966 5.56593 2.06741 5.52225C2 5.42136 2 5.28092 2 5.00002Z" fill="white"/>
<path d="M4.30001 5.00002C4.30001 4.71913 4.30001 4.57869 4.36742 4.4778C4.39661 4.43412 4.43411 4.39662 4.47778 4.36744C4.57867 4.30002 4.71912 4.30002 5.00001 4.30002C5.2809 4.30002 5.42135 4.30002 5.52224 4.36744C5.56591 4.39662 5.60342 4.43412 5.6326 4.4778C5.70001 4.57869 5.70001 4.71913 5.70001 5.00002C5.70001 5.28092 5.70001 5.42136 5.6326 5.52225C5.60342 5.56593 5.56591 5.60343 5.52224 5.63261C5.42135 5.70002 5.2809 5.70002 5.00001 5.70002C4.71912 5.70002 4.57867 5.70002 4.47778 5.63261C4.43411 5.60343 4.39661 5.56593 4.36742 5.52225C4.30001 5.42136 4.30001 5.28092 4.30001 5.00002Z" fill="white"/>
<path d="M6.60001 5.00002C6.60001 4.71913 6.60001 4.57869 6.66742 4.4778C6.6966 4.43412 6.7341 4.39662 6.77778 4.36744C6.87867 4.30002 7.01911 4.30002 7.30001 4.30002C7.5809 4.30002 7.72134 4.30002 7.82223 4.36744C7.86591 4.39662 7.90341 4.43412 7.93259 4.4778C8.00001 4.57869 8.00001 4.71913 8.00001 5.00002C8.00001 5.28092 8.00001 5.42136 7.93259 5.52225C7.90341 5.56593 7.86591 5.60343 7.82223 5.63261C7.72134 5.70002 7.5809 5.70002 7.30001 5.70002C7.01911 5.70002 6.87867 5.70002 6.77778 5.63261C6.7341 5.60343 6.6966 5.56593 6.66742 5.52225C6.60001 5.42136 6.60001 5.28092 6.60001 5.00002Z" fill="white"/>
<path d="M2 7.29997C2 7.01908 2 6.87863 2.06741 6.77774C2.0966 6.73407 2.1341 6.69657 2.17777 6.66738C2.27866 6.59997 2.41911 6.59997 2.7 6.59997C2.98089 6.59997 3.12134 6.59997 3.22223 6.66738C3.2659 6.69657 3.3034 6.73407 3.33259 6.77774C3.4 6.87863 3.4 7.01908 3.4 7.29997C3.4 7.58086 3.4 7.72131 3.33259 7.8222C3.3034 7.86587 3.2659 7.90337 3.22223 7.93256C3.12134 7.99997 2.98089 7.99997 2.7 7.99997C2.41911 7.99997 2.27866 7.99997 2.17777 7.93256C2.1341 7.90337 2.0966 7.86587 2.06741 7.8222C2 7.72131 2 7.58086 2 7.29997Z" fill="white"/>
<path d="M4.30001 7.29997C4.30001 7.01908 4.30001 6.87863 4.36742 6.77774C4.39661 6.73407 4.43411 6.69657 4.47778 6.66738C4.57867 6.59997 4.71912 6.59997 5.00001 6.59997C5.2809 6.59997 5.42135 6.59997 5.52224 6.66738C5.56591 6.69657 5.60342 6.73407 5.6326 6.77774C5.70001 6.87863 5.70001 7.01908 5.70001 7.29997C5.70001 7.58086 5.70001 7.72131 5.6326 7.8222C5.60342 7.86587 5.56591 7.90337 5.52224 7.93256C5.42135 7.99997 5.2809 7.99997 5.00001 7.99997C4.71912 7.99997 4.57867 7.99997 4.47778 7.93256C4.43411 7.90337 4.39661 7.86587 4.36742 7.8222C4.30001 7.72131 4.30001 7.58086 4.30001 7.29997Z" fill="white"/>
<path d="M6.60001 7.29997C6.60001 7.01908 6.60001 6.87863 6.66742 6.77774C6.6966 6.73407 6.7341 6.69657 6.77778 6.66738C6.87867 6.59997 7.01911 6.59997 7.30001 6.59997C7.5809 6.59997 7.72134 6.59997 7.82223 6.66738C7.86591 6.69657 7.90341 6.73407 7.93259 6.77774C8.00001 6.87863 8.00001 7.01908 8.00001 7.29997C8.00001 7.58086 8.00001 7.72131 7.93259 7.8222C7.90341 7.86587 7.86591 7.90337 7.82223 7.93256C7.72134 7.99997 7.5809 7.99997 7.30001 7.99997C7.01911 7.99997 6.87867 7.99997 6.77778 7.93256C6.7341 7.90337 6.6966 7.86587 6.66742 7.8222C6.60001 7.72131 6.60001 7.58086 6.60001 7.29997Z" fill="white"/>
</g>
<defs>
<filter id="filter0_i_1134_3127" x="0" y="0" width="10" height="10" filterUnits="userSpaceOnUse" color-interpolation-filters="sRGB">
<feFlood flood-opacity="0" result="BackgroundImageFix"/>
<feBlend mode="normal" in="SourceGraphic" in2="BackgroundImageFix" result="shape"/>
<feColorMatrix in="SourceAlpha" type="matrix" values="0 0 0 0 0 0 0 0 0 0 0 0 0 0 0 0 0 0 127 0" result="hardAlpha"/>
<feOffset/>
<feGaussianBlur stdDeviation="1"/>
<feComposite in2="hardAlpha" operator="arithmetic" k2="-1" k3="1"/>
<feColorMatrix type="matrix" values="0 0 0 0 0.942 0 0 0 0 0.94 0 0 0 0 1 0 0 0 0.1 0"/>
<feBlend mode="hard-light" in2="shape" result="effect1_innerShadow_1134_3127"/>
</filter>
</defs>
</svg>
