<svg width="10" height="10" viewBox="0 0 10 10" fill="none" xmlns="http://www.w3.org/2000/svg">
<g filter="url(#filter0_i_1162_430)">
<path d="M5 2.09961C5.22091 2.09961 5.40039 2.27909 5.40039 2.5V7.5C5.40039 7.72091 5.22091 7.90039 5 7.90039C4.77909 7.90039 4.59961 7.72091 4.59961 7.5V2.5C4.59961 2.27909 4.77909 2.09961 5 2.09961ZM3.11426 3C3.38156 3 3.51571 3.00021 3.61328 3.06152C3.66398 3.09347 3.7064 3.13676 3.73828 3.1875C3.79955 3.28505 3.7998 3.41839 3.7998 3.68555V6.31445C3.7998 6.58161 3.79955 6.71495 3.73828 6.8125C3.7064 6.86324 3.66398 6.90653 3.61328 6.93848C3.51571 6.99979 3.38156 7 3.11426 7C2.44613 7 2.11209 6.99988 1.86816 6.84668C1.74107 6.76682 1.63362 6.65928 1.55371 6.53223C1.40047 6.28834 1.40039 5.95411 1.40039 5.28613V4.71387C1.40039 4.04589 1.40047 3.71166 1.55371 3.46777C1.63362 3.34072 1.74107 3.23318 1.86816 3.15332C2.11209 3.00012 2.44613 3 3.11426 3ZM6.88574 3C7.55387 3 7.88791 3.00012 8.13184 3.15332C8.25893 3.23318 8.36638 3.34072 8.44629 3.46777C8.59953 3.71166 8.59961 4.04589 8.59961 4.71387V5.28613C8.59961 5.95411 8.59953 6.28834 8.44629 6.53223C8.36638 6.65928 8.25893 6.76682 8.13184 6.84668C7.88791 6.99988 7.55387 7 6.88574 7C6.61844 7 6.48429 6.99979 6.38672 6.93848C6.33602 6.90653 6.2936 6.86324 6.26172 6.8125C6.20044 6.71495 6.2002 6.58161 6.2002 6.31445V3.68555C6.2002 3.41839 6.20044 3.28505 6.26172 3.1875C6.2936 3.13676 6.33602 3.09347 6.38672 3.06152C6.48429 3.00021 6.61844 3 6.88574 3Z" fill="white"/>
</g>
<defs>
<filter id="filter0_i_1162_430" x="0" y="0" width="10" height="10" filterUnits="userSpaceOnUse" color-interpolation-filters="sRGB">
<feFlood flood-opacity="0" result="BackgroundImageFix"/>
<feBlend mode="normal" in="SourceGraphic" in2="BackgroundImageFix" result="shape"/>
<feColorMatrix in="SourceAlpha" type="matrix" values="0 0 0 0 0 0 0 0 0 0 0 0 0 0 0 0 0 0 127 0" result="hardAlpha"/>
<feOffset/>
<feGaussianBlur stdDeviation="1"/>
<feComposite in2="hardAlpha" operator="arithmetic" k2="-1" k3="1"/>
<feColorMatrix type="matrix" values="0 0 0 0 0.942 0 0 0 0 0.94 0 0 0 0 1 0 0 0 0.1 0"/>
<feBlend mode="hard-light" in2="shape" result="effect1_innerShadow_1162_430"/>
</filter>
</defs>
</svg>
