<svg width="10" height="10" viewBox="0 0 10 10" fill="none" xmlns="http://www.w3.org/2000/svg">
<g filter="url(#filter0_i_1161_361)">
<path d="M6.0743 2.27509C6.48435 1.86503 7.1496 1.86503 7.55965 2.27509C7.96964 2.68514 7.96968 3.35041 7.55965 3.76044L7.53621 3.78387C7.48341 3.83663 7.4312 3.9154 7.45563 3.98592C7.54762 4.25138 7.59868 4.53604 7.59871 4.8327C7.59868 5.36191 7.43931 5.85333 7.16705 6.26367C7.03436 6.46365 6.96802 6.56364 6.96412 6.64637C6.96347 6.66011 6.96358 6.66854 6.96458 6.68226C6.97059 6.76486 7.02829 6.84718 7.14368 7.0118L7.30769 7.24579C7.46566 7.47193 7.4106 7.78378 7.18465 7.94208C6.9586 8.10026 6.64681 8.04578 6.48836 7.82001L6.32869 7.5914C6.21285 7.42553 6.15493 7.3426 6.0789 7.30867C6.06627 7.30304 6.05834 7.30006 6.04513 7.29598C5.96557 7.27142 5.8482 7.3004 5.61346 7.35836C5.41628 7.40705 5.21032 7.43327 4.99812 7.43329C4.7858 7.43325 4.57967 7.40699 4.38233 7.35824C4.1478 7.3003 4.03053 7.27133 3.95103 7.29582C3.93782 7.29989 3.9299 7.30286 3.91728 7.30849C3.84128 7.34234 3.78333 7.42513 3.66741 7.59072L3.50691 7.82001C3.34841 8.04559 3.0366 8.10022 2.81062 7.94208C2.58488 7.78369 2.53054 7.47184 2.68855 7.24579L2.85297 7.01032C2.96778 6.84589 3.02519 6.76368 3.03113 6.68125C3.03212 6.66756 3.03222 6.65915 3.03157 6.64543C3.02764 6.56289 2.96151 6.46307 2.82924 6.26343C2.55739 5.85313 2.39854 5.36176 2.39851 4.8327C2.39854 4.53412 2.44878 4.24721 2.54143 3.98015C2.56528 3.91141 2.51545 3.83526 2.46394 3.78387L2.44051 3.76044C2.03046 3.35039 2.03046 2.68514 2.44051 2.27509C2.85051 1.86515 3.51484 1.86522 3.92488 2.27509L3.9493 2.29852C4.00092 2.35027 4.07738 2.40061 4.14643 2.37662C4.41327 2.28393 4.6998 2.23314 4.99812 2.23309C5.29711 2.23312 5.58416 2.28398 5.85152 2.377C5.92103 2.40119 5.99884 2.35058 6.05086 2.29852L6.0743 2.27509ZM4.9991 3.28192C4.76438 3.28192 4.5743 3.47201 4.5743 3.70673V4.96942C4.57446 5.20599 4.70839 5.42319 4.92 5.52899L5.84871 5.99384C6.05849 6.09839 6.31408 6.01305 6.41902 5.80341C6.52388 5.5937 6.43899 5.33828 6.22957 5.23309L5.73836 4.987C5.59375 4.91461 5.52122 4.87854 5.47762 4.8161C5.4713 4.80704 5.46531 4.79748 5.46004 4.78778C5.4236 4.72076 5.4239 4.63928 5.4239 4.47723V3.70673C5.4239 3.47214 5.23363 3.28214 4.9991 3.28192Z" fill="white"/>
</g>
<defs>
<filter id="filter0_i_1161_361" x="0" y="0" width="10" height="10" filterUnits="userSpaceOnUse" color-interpolation-filters="sRGB">
<feFlood flood-opacity="0" result="BackgroundImageFix"/>
<feBlend mode="normal" in="SourceGraphic" in2="BackgroundImageFix" result="shape"/>
<feColorMatrix in="SourceAlpha" type="matrix" values="0 0 0 0 0 0 0 0 0 0 0 0 0 0 0 0 0 0 127 0" result="hardAlpha"/>
<feOffset/>
<feGaussianBlur stdDeviation="1"/>
<feComposite in2="hardAlpha" operator="arithmetic" k2="-1" k3="1"/>
<feColorMatrix type="matrix" values="0 0 0 0 0.942 0 0 0 0 0.94 0 0 0 0 1 0 0 0 0.1 0"/>
<feBlend mode="hard-light" in2="shape" result="effect1_innerShadow_1161_361"/>
</filter>
</defs>
</svg>
