<svg width="10" height="10" viewBox="0 0 10 10" fill="none" xmlns="http://www.w3.org/2000/svg">
<g filter="url(#filter0_i_1079_151)">
<path d="M3.81393 5.45062C3.93265 5.47445 4.03187 5.57384 4.22995 5.77191C4.42839 5.97035 4.52843 6.07004 4.55222 6.1889C4.56245 6.24034 4.56241 6.29371 4.55222 6.34515C4.52854 6.46416 4.42857 6.56353 4.22995 6.76215L4.14499 6.84711C4.06993 6.92219 4.06664 7.04898 4.13815 7.12738C4.17458 7.16707 4.19949 7.19771 4.21432 7.22406C4.3723 7.50539 4.22654 7.86063 3.91647 7.94965C3.85025 7.96851 3.73392 7.96994 3.50241 7.97113L2.98483 7.97308C2.55844 7.97528 2.34488 7.97615 2.20358 7.8559C2.18353 7.83879 2.16503 7.8193 2.14792 7.79926C2.02741 7.65794 2.02755 7.44479 2.02975 7.01801L2.03268 6.50043C2.03388 6.26951 2.03444 6.15362 2.05319 6.08734C2.14203 5.77702 2.49733 5.63048 2.77878 5.78851C2.805 5.80324 2.83507 5.82759 2.87448 5.86371C2.9529 5.93558 3.07953 5.93207 3.15475 5.85687L3.23972 5.77191C3.43834 5.57329 3.53868 5.47429 3.65768 5.45062C3.70909 5.44044 3.76253 5.4404 3.81393 5.45062ZM6.34714 5.45062C6.46609 5.47433 6.56559 5.57435 6.76413 5.77289L6.84909 5.85785C6.9243 5.93306 7.05132 5.93597 7.12936 5.86371C7.16858 5.82741 7.19888 5.80335 7.22507 5.78851C7.50652 5.63043 7.86279 5.777 7.95163 6.08734C7.97034 6.1536 7.97095 6.26986 7.97214 6.50043L7.97507 7.01801C7.97727 7.44477 7.97739 7.65794 7.8569 7.79926C7.83981 7.81929 7.82127 7.8388 7.80124 7.8559C7.65993 7.97615 7.44644 7.97528 7.01999 7.97308L6.50143 7.97015C6.27123 7.96897 6.15556 7.96832 6.08932 7.94965C5.77916 7.86086 5.63188 7.50543 5.78952 7.22406C5.80427 7.19785 5.82939 7.16761 5.86569 7.12836C5.93784 7.05026 5.93405 6.92327 5.85886 6.84808L5.7739 6.76312C5.57561 6.56484 5.47648 6.46488 5.45261 6.34613C5.44239 6.29476 5.44245 6.24126 5.45261 6.18988C5.47631 6.07097 5.57551 5.97127 5.7739 5.77289C5.97243 5.57435 6.07195 5.47435 6.19089 5.45062C6.24234 5.4404 6.29568 5.44041 6.34714 5.45062ZM7.01901 2.02777C7.44563 2.02557 7.65898 2.02545 7.80026 2.14594C7.82023 2.16298 7.83888 2.18163 7.85593 2.2016C7.97643 2.34288 7.97629 2.55621 7.97409 2.98285L7.97116 3.5014C7.96997 3.73214 7.96844 3.84827 7.94968 3.91449C7.8606 4.2245 7.50539 4.37131 7.22409 4.21332C7.1979 4.19857 7.16776 4.1742 7.12839 4.13812C7.04992 4.06625 6.92336 4.06971 6.84811 4.14496L6.76315 4.22992C6.56487 4.4282 6.46504 4.52654 6.34616 4.55023C6.29465 4.56048 6.24142 4.56048 6.18991 4.55023C6.07108 4.52649 5.97216 4.42721 5.7739 4.22894C5.57529 4.03034 5.47531 3.93095 5.45163 3.81195C5.44141 3.76048 5.44139 3.70717 5.45163 3.6557C5.4754 3.53692 5.57475 3.43785 5.77292 3.23969L5.85788 3.15472C5.93302 3.07958 5.93634 2.9529 5.86472 2.87445C5.82827 2.83473 5.80338 2.80412 5.78854 2.77777C5.63055 2.49647 5.77736 2.14125 6.08737 2.05219C6.15359 2.03342 6.26971 2.03189 6.50046 2.0307L7.01901 2.02777ZM3.4985 2.02972C3.73019 2.03092 3.84641 2.03227 3.91257 2.05121C4.22273 2.14014 4.36838 2.49542 4.21042 2.77679C4.19567 2.80293 4.1712 2.83324 4.13522 2.8725C4.06363 2.95092 4.06602 3.0786 4.14108 3.15375L4.22604 3.23871C4.42463 3.43729 4.52464 3.5367 4.54831 3.6557C4.55842 3.707 4.55851 3.76066 4.54831 3.81195C4.52434 3.93052 4.42497 4.03002 4.22702 4.22797C4.02865 4.42633 3.92887 4.52548 3.81003 4.54926C3.75863 4.55948 3.70519 4.55943 3.65378 4.54926C3.53493 4.52546 3.43518 4.42636 3.23679 4.22797L3.15182 4.14301C3.0766 4.06787 2.94993 4.06432 2.87155 4.13617C2.83176 4.17267 2.80126 4.1975 2.77487 4.21234C2.49359 4.37013 2.1383 4.22445 2.04929 3.91449C2.03035 3.84835 2.02997 3.732 2.02878 3.50043L2.02585 2.98187C2.02365 2.55549 2.02264 2.34188 2.14304 2.20062C2.16001 2.18073 2.17883 2.16195 2.1987 2.14496C2.34001 2.0245 2.55421 2.02459 2.98093 2.02679L3.4985 2.02972Z" fill="white"/>
</g>
<defs>
<filter id="filter0_i_1079_151" x="0" y="0" width="10" height="10" filterUnits="userSpaceOnUse" color-interpolation-filters="sRGB">
<feFlood flood-opacity="0" result="BackgroundImageFix"/>
<feBlend mode="normal" in="SourceGraphic" in2="BackgroundImageFix" result="shape"/>
<feColorMatrix in="SourceAlpha" type="matrix" values="0 0 0 0 0 0 0 0 0 0 0 0 0 0 0 0 0 0 127 0" result="hardAlpha"/>
<feOffset/>
<feGaussianBlur stdDeviation="1"/>
<feComposite in2="hardAlpha" operator="arithmetic" k2="-1" k3="1"/>
<feColorMatrix type="matrix" values="0 0 0 0 0.942 0 0 0 0 0.94 0 0 0 0 1 0 0 0 0.1 0"/>
<feBlend mode="hard-light" in2="shape" result="effect1_innerShadow_1079_151"/>
</filter>
</defs>
</svg>
