<svg width="10" height="10" viewBox="0 0 10 10" fill="none" xmlns="http://www.w3.org/2000/svg">
<g filter="url(#filter0_i_1079_219)">
<path d="M5.5 2.05029C5.76257 2.05029 5.98515 2.21883 6.06641 2.45361C6.10253 2.558 6.18935 2.6499 6.2998 2.6499H7.2002C7.53136 2.64999 7.79959 2.91838 7.7998 3.24951C7.79981 3.5153 7.62704 3.74086 7.3877 3.81982C7.28641 3.85317 7.19565 3.93402 7.19043 4.04053L7.08789 6.14209C7.04847 6.95025 7.02876 7.35484 6.79004 7.61963C6.75621 7.65712 6.71976 7.69216 6.68066 7.72412C6.40456 7.94965 5.99955 7.94971 5.19043 7.94971H4.80957C4.00065 7.94971 3.59641 7.94952 3.32031 7.72412C3.28106 7.69206 3.2439 7.65726 3.20996 7.61963C2.97124 7.35484 2.95153 6.95025 2.91211 6.14209L2.80957 4.04053C2.80435 3.93403 2.71358 3.85317 2.6123 3.81982C2.37297 3.74084 2.2002 3.51528 2.2002 3.24951C2.20041 2.91839 2.46867 2.65002 2.7998 2.6499H3.7002C3.81065 2.6499 3.89747 2.558 3.93359 2.45361C4.01485 2.21883 4.23745 2.05031 4.5 2.05029H5.5ZM4.11328 4.15088C3.86639 4.1587 3.67198 4.36387 3.67773 4.61084L3.72266 6.51025C3.72866 6.7599 3.9369 6.95648 4.18652 6.94873C4.4336 6.94103 4.62793 6.7359 4.62207 6.48877L4.57715 4.58936C4.57104 4.3398 4.36284 4.14313 4.11328 4.15088ZM5.88672 4.15088C5.63716 4.14313 5.42896 4.3398 5.42285 4.58936L5.37793 6.48877C5.37208 6.73587 5.56644 6.94099 5.81348 6.94873C6.06309 6.95648 6.27133 6.7599 6.27734 6.51025L6.32227 4.61084C6.32802 4.36384 6.13365 4.15866 5.88672 4.15088Z" fill="white"/>
</g>
<defs>
<filter id="filter0_i_1079_219" x="0" y="0" width="10" height="10" filterUnits="userSpaceOnUse" color-interpolation-filters="sRGB">
<feFlood flood-opacity="0" result="BackgroundImageFix"/>
<feBlend mode="normal" in="SourceGraphic" in2="BackgroundImageFix" result="shape"/>
<feColorMatrix in="SourceAlpha" type="matrix" values="0 0 0 0 0 0 0 0 0 0 0 0 0 0 0 0 0 0 127 0" result="hardAlpha"/>
<feOffset/>
<feGaussianBlur stdDeviation="1"/>
<feComposite in2="hardAlpha" operator="arithmetic" k2="-1" k3="1"/>
<feColorMatrix type="matrix" values="0 0 0 0 0.942 0 0 0 0 0.94 0 0 0 0 1 0 0 0 0.1 0"/>
<feBlend mode="hard-light" in2="shape" result="effect1_innerShadow_1079_219"/>
</filter>
</defs>
</svg>
