<svg width="10" height="10" viewBox="0 0 10 10" fill="none" xmlns="http://www.w3.org/2000/svg">
<g filter="url(#filter0_i_1180_136)">
<path d="M2.72052 3.86523C2.47947 3.96413 2.40079 4.31506 2.24336 5.01635L2.17223 5.33331C2.03301 5.95349 1.96316 6.26359 2.11699 6.45197C2.13822 6.47797 2.16212 6.50187 2.18812 6.5231C2.37652 6.67683 2.68666 6.60707 3.30678 6.46786L3.62374 6.39673C4.32498 6.23931 4.67593 6.16058 4.77486 5.91957C4.78837 5.88661 4.79833 5.85176 4.80455 5.81668C4.82135 5.72132 4.79671 5.62638 4.73303 5.51859C4.58583 5.26943 4.51223 5.14485 4.5359 5.03113C4.5391 5.01579 4.54419 4.99856 4.54984 4.98394C4.59178 4.87562 4.6714 4.83593 4.83062 4.75653C4.98801 4.67805 5.15685 4.62227 5.33212 4.59167C5.70188 4.52714 6.08283 4.57759 6.42247 4.73738C6.76215 4.89722 7.0444 5.15844 7.2304 5.48453C7.31849 5.63899 7.38262 5.805 7.42236 5.97619C7.49588 6.29241 7.72409 6.58439 8.0473 6.61494C8.37051 6.64537 8.66309 6.40622 8.63011 6.08323C8.58782 5.66966 8.45974 5.26726 8.2517 4.90241C7.94578 4.36608 7.48179 3.93616 6.92311 3.67326C6.36464 3.41052 5.73849 3.32695 5.13048 3.43296C4.7125 3.50591 4.3167 3.66626 3.96831 3.90112C3.76722 4.03667 3.66668 4.10445 3.59034 4.11155C3.57494 4.11298 3.57248 4.11307 3.55702 4.11279C3.48036 4.11137 3.35711 4.04097 3.11062 3.90018C3.007 3.841 2.91501 3.81848 2.82272 3.83485C2.78767 3.84107 2.75346 3.85173 2.72052 3.86523Z" fill="white"/>
</g>
<defs>
<filter id="filter0_i_1180_136" x="0" y="0" width="10" height="10" filterUnits="userSpaceOnUse" color-interpolation-filters="sRGB">
<feFlood flood-opacity="0" result="BackgroundImageFix"/>
<feBlend mode="normal" in="SourceGraphic" in2="BackgroundImageFix" result="shape"/>
<feColorMatrix in="SourceAlpha" type="matrix" values="0 0 0 0 0 0 0 0 0 0 0 0 0 0 0 0 0 0 127 0" result="hardAlpha"/>
<feOffset/>
<feGaussianBlur stdDeviation="1"/>
<feComposite in2="hardAlpha" operator="arithmetic" k2="-1" k3="1"/>
<feColorMatrix type="matrix" values="0 0 0 0 0.942 0 0 0 0 0.94 0 0 0 0 1 0 0 0 0.1 0"/>
<feBlend mode="hard-light" in2="shape" result="effect1_innerShadow_1180_136"/>
</filter>
</defs>
</svg>
