<svg width="10" height="10" viewBox="0 0 10 10" fill="none" xmlns="http://www.w3.org/2000/svg">
<g filter="url(#filter0_i_1142_1478)">
<path fill-rule="evenodd" clip-rule="evenodd" d="M4.2254 1.62489C4.76582 1.18476 5.53812 1.17529 6.08965 1.60145L7.26634 2.51064C7.4848 2.67944 7.52505 2.9934 7.35622 3.21185C7.18742 3.43026 6.87353 3.4705 6.65509 3.30172L5.47833 2.39247C5.29456 2.25053 5.03734 2.25376 4.85723 2.40028L3.72344 3.32411C3.47831 3.52427 3.47803 3.89953 3.72344 4.0995L5.47247 5.5243C5.57151 5.60454 5.63588 5.72015 5.65215 5.84657L5.9129 7.8495C5.97228 8.30632 5.61678 8.7118 5.15606 8.7118C4.69558 8.71156 4.33992 8.30614 4.39922 7.8495L4.48753 7.17366C4.55101 6.68781 4.58275 6.44489 4.50769 6.22429C4.49676 6.19217 4.48421 6.16064 4.47008 6.1298C4.373 5.91796 4.183 5.7633 3.80301 5.45398L3.09161 4.87489C2.3551 4.27477 2.35539 3.14904 3.09161 2.54872L4.2254 1.62489ZM5.15606 3.11122C5.48729 3.11122 5.75642 3.37964 5.75665 3.71083C5.75665 4.0422 5.48743 4.31141 5.15606 4.31141C4.82488 4.31119 4.55645 4.04206 4.55645 3.71083C4.55667 3.37978 4.82502 3.11144 5.15606 3.11122Z" fill="white"/>
</g>
<defs>
<filter id="filter0_i_1142_1478" x="0" y="0" width="10" height="10" filterUnits="userSpaceOnUse" color-interpolation-filters="sRGB">
<feFlood flood-opacity="0" result="BackgroundImageFix"/>
<feBlend mode="normal" in="SourceGraphic" in2="BackgroundImageFix" result="shape"/>
<feColorMatrix in="SourceAlpha" type="matrix" values="0 0 0 0 0 0 0 0 0 0 0 0 0 0 0 0 0 0 127 0" result="hardAlpha"/>
<feOffset/>
<feGaussianBlur stdDeviation="1"/>
<feComposite in2="hardAlpha" operator="arithmetic" k2="-1" k3="1"/>
<feColorMatrix type="matrix" values="0 0 0 0 0.942 0 0 0 0 0.94 0 0 0 0 1 0 0 0 0.1 0"/>
<feBlend mode="hard-light" in2="shape" result="effect1_innerShadow_1142_1478"/>
</filter>
</defs>
</svg>
